  0
SECTION
  2
HEADER
  9
$ACADVER
  1
AC1009
  9
$FILLMODE
 70
1
  9
$EXTMIN
 10
-5.3973
 20
-8.2380
 30
0.0000
  9
$EXTMAX
 10
34.1460
 20
19.8755
 30
0.0000
  0
ENDSEC
  0
SECTION
  2
TABLES
  0
TABLE
  2
LTYPE
 70
1
  0
LTYPE
  2
CONTINUOUS
 70
64
  3
Solid line
 72
65
 73
0
 40
0
  0
ENDTAB
  0
TABLE
  2
LAYER
 70
255
  0
LAYER
  2
17
 70
64
 62
110
  6
CONTINUOUS
  0
LAYER
  2
20
 70
64
 62
53
  6
CONTINUOUS
  0
LAYER
  2
21
 70
64
 62
53
  6
CONTINUOUS
  0
LAYER
  2
44
 70
64
 62
253
  6
CONTINUOUS
  0
LAYER
  2
45
 70
64
 62
253
  6
CONTINUOUS
  0
LAYER
  2
46
 70
64
 62
140
  6
CONTINUOUS
  0
LAYER
  2
51
 70
64
 62
253
  6
CONTINUOUS
  0
ENDTAB
  0
ENDSEC
  0
SECTION
  2
BLOCKS
  0
BLOCK
  8
0
  2
RECT
 70
64
 10
0.0000
 20
0.0000
 30
0.0000
  3
RECT
  0
SOLID
  8
0
 10
-0.5000
 20
-0.5000
 30
0.0000
 11
0.5000
 21
-0.5000
 31
0.0000
 12
-0.5000
 22
0.5000
 32
0.0000
 13
0.5000
 23
0.5000
 33
0.0000
  0
ENDBLK
  8
0
  0
BLOCK
  8
0
  2
PIE
 70
64
 10
0.0000
 20
0.0000
 30
0.0000
  3
PIE
  0
POLYLINE
  8
0
 66
1
 10
0.0000
 20
0.0000
 30
0.0000
 40
0.5000
 41
0.5000
 70
0
  0
VERTEX
  8
0
 10
0.0000
 20
-0.2500
 30
0.0000
 42
1.0000
  0
VERTEX
  8
0
 10
0.0000
 20
0.2500
 30
0.0000
 42
1.0000
  0
VERTEX
  8
0
 10
0.0000
 20
-0.2500
 30
0.0000
  0
SEQEND
  8
0
  0
ENDBLK
  8
0
  0
BLOCK
  8
0
  2
OCTAGONP
 70
64
 10
0.0000
 20
0.0000
 30
0.0000
  3
OCTAGONP
  0
POLYLINE
  8
0
 66
1
 10
0.0000
 20
0.0000
 30
0.0000
 40
0.5000
 41
0.5000
 70
0
  0
VERTEX
  8
0
 10
-0.2500
 20
-0.1036
 30
0.0000
  0
VERTEX
  8
0
 10
-0.2500
 20
0.1036
 30
0.0000
  0
VERTEX
  8
0
 10
-0.1036
 20
0.2500
 30
0.0000
  0
VERTEX
  8
0
 10
0.1036
 20
0.2500
 30
0.0000
  0
VERTEX
  8
0
 10
0.2500
 20
0.1036
 30
0.0000
  0
VERTEX
  8
0
 10
0.2500
 20
-0.1036
 30
0.0000
  0
VERTEX
  8
0
 10
0.1036
 20
-0.2500
 30
0.0000
  0
VERTEX
  8
0
 10
-0.1036
 20
-0.2500
 30
0.0000
  0
VERTEX
  8
0
 10
-0.2500
 20
-0.1036
 30
0.0000
  0
VERTEX
  8
0
 10
-0.2500
 20
0.1036
 30
0.0000
  0
SEQEND
  8
0
  0
ENDBLK
  8
0
  0
BLOCK
  8
0
  2
SQUAREP
 70
64
 10
0.0000
 20
0.0000
 30
0.0000
  3
SQUAREP
  0
SOLID
  8
0
 10
-0.5000
 20
-0.5000
 30
0.0000
 11
0.5000
 21
-0.5000
 31
0.0000
 12
-0.5000
 22
0.5000
 32
0.0000
 13
0.5000
 23
0.5000
 33
0.0000
  0
ENDBLK
  8
0
  0
BLOCK
  8
0
  2
ROUNDP
 70
64
 10
0.0000
 20
0.0000
 30
0.0000
  3
ROUNDP
  0
POLYLINE
  8
0
 66
1
 10
0.0000
 20
0.0000
 30
0.0000
 40
0.5000
 41
0.5000
 70
0
  0
VERTEX
  8
0
 10
0.0000
 20
-0.2500
 30
0.0000
 42
1.0000
  0
VERTEX
  8
0
 10
0.0000
 20
0.2500
 30
0.0000
 42
1.0000
  0
VERTEX
  8
0
 10
0.0000
 20
-0.2500
 30
0.0000
  0
SEQEND
  8
0
  0
ENDBLK
  8
0
  0
BLOCK
  8
0
  2
ANNULUSP
 70
64
 10
0.0000
 20
0.0000
 30
0.0000
  3
ANNULUSP
  0
POLYLINE
  8
0
 66
1
 10
0.0000
 20
0.0000
 30
0.0000
 40
0.5000
 41
0.5000
 70
0
  0
VERTEX
  8
0
 10
0.0000
 20
-0.2500
 30
0.0000
 42
1.0000
  0
VERTEX
  8
0
 10
0.0000
 20
0.2500
 30
0.0000
 42
1.0000
  0
VERTEX
  8
0
 10
0.0000
 20
-0.2500
 30
0.0000
  0
SEQEND
  8
0
  0
ENDBLK
  8
0
  0
BLOCK
  8
0
  2
THERMALP
 70
64
 10
0.0000
 20
0.0000
 30
0.0000
  3
THERMALP
  0
POLYLINE
  8
0
 66
1
 10
0.0000
 20
0.0000
 30
0.0000
 40
0.1000
 41
0.1000
 70
0
  0
VERTEX
  8
0
 10
-0.2379
 20
0.4500
 30
0.0000
  0
VERTEX
  8
0
 10
0.2379
 20
0.4500
 30
0.0000
  0
SEQEND
  8
0
  0
POLYLINE
  8
0
 66
1
 10
0.0000
 20
0.0000
 30
0.0000
 40
0.0500
 41
0.0500
 70
0
  0
VERTEX
  8
0
 10
0.2379
 20
0.4250
 30
0.0000
 42
1.0000
  0
VERTEX
  8
0
 10
0.2379
 20
0.4750
 30
0.0000
  0
SEQEND
  8
0
  0
POLYLINE
  8
0
 66
1
 10
0.0000
 20
0.0000
 30
0.0000
 40
0.0500
 41
0.0500
 70
0
  0
VERTEX
  8
0
 10
-0.2379
 20
0.4750
 30
0.0000
 42
1.0000
  0
VERTEX
  8
0
 10
-0.2379
 20
0.4250
 30
0.0000
  0
SEQEND
  8
0
  0
POLYLINE
  8
0
 66
1
 10
0.0000
 20
0.0000
 30
0.0000
 40
0.1000
 41
0.1000
 70
0
  0
VERTEX
  8
0
 10
0.4500
 20
0.2379
 30
0.0000
  0
VERTEX
  8
0
 10
0.4500
 20
-0.2379
 30
0.0000
  0
SEQEND
  8
0
  0
POLYLINE
  8
0
 66
1
 10
0.0000
 20
0.0000
 30
0.0000
 40
0.0500
 41
0.0500
 70
0
  0
VERTEX
  8
0
 10
0.4250
 20
-0.2379
 30
0.0000
 42
1.0000
  0
VERTEX
  8
0
 10
0.4750
 20
-0.2379
 30
0.0000
  0
SEQEND
  8
0
  0
POLYLINE
  8
0
 66
1
 10
0.0000
 20
0.0000
 30
0.0000
 40
0.0500
 41
0.0500
 70
0
  0
VERTEX
  8
0
 10
0.4750
 20
0.2379
 30
0.0000
 42
1.0000
  0
VERTEX
  8
0
 10
0.4250
 20
0.2379
 30
0.0000
  0
SEQEND
  8
0
  0
POLYLINE
  8
0
 66
1
 10
0.0000
 20
0.0000
 30
0.0000
 40
0.1000
 41
0.1000
 70
0
  0
VERTEX
  8
0
 10
0.2379
 20
-0.4500
 30
0.0000
  0
VERTEX
  8
0
 10
-0.2379
 20
-0.4500
 30
0.0000
  0
SEQEND
  8
0
  0
POLYLINE
  8
0
 66
1
 10
0.0000
 20
0.0000
 30
0.0000
 40
0.0500
 41
0.0500
 70
0
  0
VERTEX
  8
0
 10
-0.2379
 20
-0.4250
 30
0.0000
 42
1.0000
  0
VERTEX
  8
0
 10
-0.2379
 20
-0.4750
 30
0.0000
  0
SEQEND
  8
0
  0
POLYLINE
  8
0
 66
1
 10
0.0000
 20
0.0000
 30
0.0000
 40
0.0500
 41
0.0500
 70
0
  0
VERTEX
  8
0
 10
0.2379
 20
-0.4750
 30
0.0000
 42
1.0000
  0
VERTEX
  8
0
 10
0.2379
 20
-0.4250
 30
0.0000
  0
SEQEND
  8
0
  0
POLYLINE
  8
0
 66
1
 10
0.0000
 20
0.0000
 30
0.0000
 40
0.1000
 41
0.1000
 70
0
  0
VERTEX
  8
0
 10
-0.4500
 20
-0.2379
 30
0.0000
  0
VERTEX
  8
0
 10
-0.4500
 20
0.2379
 30
0.0000
  0
SEQEND
  8
0
  0
POLYLINE
  8
0
 66
1
 10
0.0000
 20
0.0000
 30
0.0000
 40
0.0500
 41
0.0500
 70
0
  0
VERTEX
  8
0
 10
-0.4250
 20
0.2379
 30
0.0000
 42
1.0000
  0
VERTEX
  8
0
 10
-0.4750
 20
0.2379
 30
0.0000
  0
SEQEND
  8
0
  0
POLYLINE
  8
0
 66
1
 10
0.0000
 20
0.0000
 30
0.0000
 40
0.0500
 41
0.0500
 70
0
  0
VERTEX
  8
0
 10
-0.4750
 20
-0.2379
 30
0.0000
 42
1.0000
  0
VERTEX
  8
0
 10
-0.4250
 20
-0.2379
 30
0.0000
  0
SEQEND
  8
0
  0
ENDBLK
  8
0
  0
BLOCK
  8
0
  2
OCTAGONV
 70
64
 10
0.0000
 20
0.0000
 30
0.0000
  3
OCTAGONV
  0
POLYLINE
  8
0
 66
1
 10
0.0000
 20
0.0000
 30
0.0000
 40
0.5000
 41
0.5000
 70
0
  0
VERTEX
  8
0
 10
-0.2500
 20
-0.1036
 30
0.0000
  0
VERTEX
  8
0
 10
-0.2500
 20
0.1036
 30
0.0000
  0
VERTEX
  8
0
 10
-0.1036
 20
0.2500
 30
0.0000
  0
VERTEX
  8
0
 10
0.1036
 20
0.2500
 30
0.0000
  0
VERTEX
  8
0
 10
0.2500
 20
0.1036
 30
0.0000
  0
VERTEX
  8
0
 10
0.2500
 20
-0.1036
 30
0.0000
  0
VERTEX
  8
0
 10
0.1036
 20
-0.2500
 30
0.0000
  0
VERTEX
  8
0
 10
-0.1036
 20
-0.2500
 30
0.0000
  0
VERTEX
  8
0
 10
-0.2500
 20
-0.1036
 30
0.0000
  0
VERTEX
  8
0
 10
-0.2500
 20
0.1036
 30
0.0000
  0
SEQEND
  8
0
  0
ENDBLK
  8
0
  0
BLOCK
  8
0
  2
SQUAREV
 70
64
 10
0.0000
 20
0.0000
 30
0.0000
  3
SQUAREV
  0
SOLID
  8
0
 10
-0.5000
 20
-0.5000
 30
0.0000
 11
0.5000
 21
-0.5000
 31
0.0000
 12
-0.5000
 22
0.5000
 32
0.0000
 13
0.5000
 23
0.5000
 33
0.0000
  0
ENDBLK
  8
0
  0
BLOCK
  8
0
  2
ROUNDV
 70
64
 10
0.0000
 20
0.0000
 30
0.0000
  3
ROUNDV
  0
POLYLINE
  8
0
 66
1
 10
0.0000
 20
0.0000
 30
0.0000
 40
0.5000
 41
0.5000
 70
0
  0
VERTEX
  8
0
 10
0.0000
 20
-0.2500
 30
0.0000
 42
1.0000
  0
VERTEX
  8
0
 10
0.0000
 20
0.2500
 30
0.0000
 42
1.0000
  0
VERTEX
  8
0
 10
0.0000
 20
-0.2500
 30
0.0000
  0
SEQEND
  8
0
  0
ENDBLK
  8
0
  0
BLOCK
  8
0
  2
ANNULUSV
 70
64
 10
0.0000
 20
0.0000
 30
0.0000
  3
ANNULUSV
  0
POLYLINE
  8
0
 66
1
 10
0.0000
 20
0.0000
 30
0.0000
 40
0.5000
 41
0.5000
 70
0
  0
VERTEX
  8
0
 10
0.0000
 20
-0.2500
 30
0.0000
 42
1.0000
  0
VERTEX
  8
0
 10
0.0000
 20
0.2500
 30
0.0000
 42
1.0000
  0
VERTEX
  8
0
 10
0.0000
 20
-0.2500
 30
0.0000
  0
SEQEND
  8
0
  0
ENDBLK
  8
0
  0
BLOCK
  8
0
  2
THERMALV
 70
64
 10
0.0000
 20
0.0000
 30
0.0000
  3
THERMALV
  0
POLYLINE
  8
0
 66
1
 10
0.0000
 20
0.0000
 30
0.0000
 40
0.1000
 41
0.1000
 70
0
  0
VERTEX
  8
0
 10
-0.2379
 20
0.4500
 30
0.0000
  0
VERTEX
  8
0
 10
0.2379
 20
0.4500
 30
0.0000
  0
SEQEND
  8
0
  0
POLYLINE
  8
0
 66
1
 10
0.0000
 20
0.0000
 30
0.0000
 40
0.0500
 41
0.0500
 70
0
  0
VERTEX
  8
0
 10
0.2379
 20
0.4250
 30
0.0000
 42
1.0000
  0
VERTEX
  8
0
 10
0.2379
 20
0.4750
 30
0.0000
  0
SEQEND
  8
0
  0
POLYLINE
  8
0
 66
1
 10
0.0000
 20
0.0000
 30
0.0000
 40
0.0500
 41
0.0500
 70
0
  0
VERTEX
  8
0
 10
-0.2379
 20
0.4750
 30
0.0000
 42
1.0000
  0
VERTEX
  8
0
 10
-0.2379
 20
0.4250
 30
0.0000
  0
SEQEND
  8
0
  0
POLYLINE
  8
0
 66
1
 10
0.0000
 20
0.0000
 30
0.0000
 40
0.1000
 41
0.1000
 70
0
  0
VERTEX
  8
0
 10
0.4500
 20
0.2379
 30
0.0000
  0
VERTEX
  8
0
 10
0.4500
 20
-0.2379
 30
0.0000
  0
SEQEND
  8
0
  0
POLYLINE
  8
0
 66
1
 10
0.0000
 20
0.0000
 30
0.0000
 40
0.0500
 41
0.0500
 70
0
  0
VERTEX
  8
0
 10
0.4250
 20
-0.2379
 30
0.0000
 42
1.0000
  0
VERTEX
  8
0
 10
0.4750
 20
-0.2379
 30
0.0000
  0
SEQEND
  8
0
  0
POLYLINE
  8
0
 66
1
 10
0.0000
 20
0.0000
 30
0.0000
 40
0.0500
 41
0.0500
 70
0
  0
VERTEX
  8
0
 10
0.4750
 20
0.2379
 30
0.0000
 42
1.0000
  0
VERTEX
  8
0
 10
0.4250
 20
0.2379
 30
0.0000
  0
SEQEND
  8
0
  0
POLYLINE
  8
0
 66
1
 10
0.0000
 20
0.0000
 30
0.0000
 40
0.1000
 41
0.1000
 70
0
  0
VERTEX
  8
0
 10
0.2379
 20
-0.4500
 30
0.0000
  0
VERTEX
  8
0
 10
-0.2379
 20
-0.4500
 30
0.0000
  0
SEQEND
  8
0
  0
POLYLINE
  8
0
 66
1
 10
0.0000
 20
0.0000
 30
0.0000
 40
0.0500
 41
0.0500
 70
0
  0
VERTEX
  8
0
 10
-0.2379
 20
-0.4250
 30
0.0000
 42
1.0000
  0
VERTEX
  8
0
 10
-0.2379
 20
-0.4750
 30
0.0000
  0
SEQEND
  8
0
  0
POLYLINE
  8
0
 66
1
 10
0.0000
 20
0.0000
 30
0.0000
 40
0.0500
 41
0.0500
 70
0
  0
VERTEX
  8
0
 10
0.2379
 20
-0.4750
 30
0.0000
 42
1.0000
  0
VERTEX
  8
0
 10
0.2379
 20
-0.4250
 30
0.0000
  0
SEQEND
  8
0
  0
POLYLINE
  8
0
 66
1
 10
0.0000
 20
0.0000
 30
0.0000
 40
0.1000
 41
0.1000
 70
0
  0
VERTEX
  8
0
 10
-0.4500
 20
-0.2379
 30
0.0000
  0
VERTEX
  8
0
 10
-0.4500
 20
0.2379
 30
0.0000
  0
SEQEND
  8
0
  0
POLYLINE
  8
0
 66
1
 10
0.0000
 20
0.0000
 30
0.0000
 40
0.0500
 41
0.0500
 70
0
  0
VERTEX
  8
0
 10
-0.4250
 20
0.2379
 30
0.0000
 42
1.0000
  0
VERTEX
  8
0
 10
-0.4750
 20
0.2379
 30
0.0000
  0
SEQEND
  8
0
  0
POLYLINE
  8
0
 66
1
 10
0.0000
 20
0.0000
 30
0.0000
 40
0.0500
 41
0.0500
 70
0
  0
VERTEX
  8
0
 10
-0.4750
 20
-0.2379
 30
0.0000
 42
1.0000
  0
VERTEX
  8
0
 10
-0.4250
 20
-0.2379
 30
0.0000
  0
SEQEND
  8
0
  0
ENDBLK
  8
0
  0
ENDSEC
  0
SECTION
  2
ENTITIES
  0
LINE
  8
20
 10
0.0000
 20
15.2400
 30
0.0000
 11
0.0000
 21
2.5400
 31
0.0000
  0
ARC
  8
20
 10
2.5400
 20
2.5400
 30
0.0000
 40
2.5400
 50
180.0000
 51
270.0000
  0
LINE
  8
20
 10
2.5400
 20
0.0000
 30
0.0000
 11
22.8600
 21
0.0000
 31
0.0000
  0
ARC
  8
20
 10
22.8600
 20
2.5400
 30
0.0000
 40
2.5400
 50
270.0000
 51
0.0000
  0
LINE
  8
20
 10
25.4000
 20
2.5400
 30
0.0000
 11
25.4000
 21
15.2400
 31
0.0000
  0
ARC
  8
20
 10
22.8600
 20
15.2400
 30
0.0000
 40
2.5400
 50
0.0000
 51
90.0000
  0
LINE
  8
20
 10
22.8600
 20
17.7800
 30
0.0000
 11
2.5400
 21
17.7800
 31
0.0000
  0
ARC
  8
20
 10
2.5400
 20
15.2400
 30
0.0000
 40
2.5400
 50
90.0000
 51
180.0000
  0
POLYLINE
  8
51
 66
1
 10
0.0000
 20
0.0000
 30
0.0000
 40
0.1016
 41
0.1016
 70
0
  0
VERTEX
  8
51
 10
15.6085
 20
7.0870
 30
0.0000
  0
VERTEX
  8
51
 10
15.6085
 20
6.3750
 30
0.0000
  0
SEQEND
  8
0
  0
POLYLINE
  8
51
 66
1
 10
0.0000
 20
0.0000
 30
0.0000
 40
0.0508
 41
0.0508
 70
0
  0
VERTEX
  8
51
 10
15.5831
 20
6.3750
 30
0.0000
 42
1.0000
  0
VERTEX
  8
51
 10
15.6339
 20
6.3750
 30
0.0000
  0
SEQEND
  8
0
  0
POLYLINE
  8
51
 66
1
 10
0.0000
 20
0.0000
 30
0.0000
 40
0.0508
 41
0.0508
 70
0
  0
VERTEX
  8
51
 10
15.6339
 20
7.0870
 30
0.0000
 42
1.0000
  0
VERTEX
  8
51
 10
15.5831
 20
7.0870
 30
0.0000
  0
SEQEND
  8
0
  0
POLYLINE
  8
51
 66
1
 10
0.0000
 20
0.0000
 30
0.0000
 40
0.1016
 41
0.1016
 70
0
  0
VERTEX
  8
51
 10
14.7575
 20
7.0870
 30
0.0000
  0
VERTEX
  8
51
 10
14.7575
 20
6.3750
 30
0.0000
  0
SEQEND
  8
0
  0
POLYLINE
  8
51
 66
1
 10
0.0000
 20
0.0000
 30
0.0000
 40
0.0508
 41
0.0508
 70
0
  0
VERTEX
  8
51
 10
14.7321
 20
6.3750
 30
0.0000
 42
1.0000
  0
VERTEX
  8
51
 10
14.7829
 20
6.3750
 30
0.0000
  0
SEQEND
  8
0
  0
POLYLINE
  8
51
 66
1
 10
0.0000
 20
0.0000
 30
0.0000
 40
0.0508
 41
0.0508
 70
0
  0
VERTEX
  8
51
 10
14.7829
 20
7.0870
 30
0.0000
 42
1.0000
  0
VERTEX
  8
51
 10
14.7321
 20
7.0870
 30
0.0000
  0
SEQEND
  8
0
  0
POLYLINE
  8
21
 66
1
 10
0.0000
 20
0.0000
 30
0.0000
 40
0.3048
 41
0.3048
 70
0
  0
VERTEX
  8
21
 10
15.5765
 20
6.7310
 30
0.0000
  0
VERTEX
  8
21
 10
14.7765
 20
6.7310
 30
0.0000
  0
SEQEND
  8
0
  0
POLYLINE
  8
21
 66
1
 10
0.0000
 20
0.0000
 30
0.0000
 40
0.1524
 41
0.1524
 70
0
  0
VERTEX
  8
21
 10
14.7765
 20
6.8072
 30
0.0000
 42
1.0000
  0
VERTEX
  8
21
 10
14.7765
 20
6.6548
 30
0.0000
  0
SEQEND
  8
0
  0
POLYLINE
  8
21
 66
1
 10
0.0000
 20
0.0000
 30
0.0000
 40
0.1524
 41
0.1524
 70
0
  0
VERTEX
  8
21
 10
15.5765
 20
6.6548
 30
0.0000
 42
1.0000
  0
VERTEX
  8
21
 10
15.5765
 20
6.8072
 30
0.0000
  0
SEQEND
  8
0
  0
INSERT
  8
51
  2
RECT
 10
15.1816
 20
7.3192
 30
0.0000
 41
0.5001
 42
0.9500
 43
1.0000
 50
270.0000
  0
INSERT
  8
51
  2
RECT
 10
15.1816
 20
6.1508
 30
0.0000
 41
0.5001
 42
0.9500
 43
1.0000
 50
270.0000
  0
POLYLINE
  8
51
 66
1
 10
0.0000
 20
0.0000
 30
0.0000
 40
0.1016
 41
0.1016
 70
0
  0
VERTEX
  8
51
 10
7.1505
 20
9.6520
 30
0.0000
  0
VERTEX
  8
51
 10
7.1505
 20
10.4140
 30
0.0000
  0
SEQEND
  8
0
  0
POLYLINE
  8
51
 66
1
 10
0.0000
 20
0.0000
 30
0.0000
 40
0.0508
 41
0.0508
 70
0
  0
VERTEX
  8
51
 10
7.1759
 20
10.4140
 30
0.0000
 42
1.0000
  0
VERTEX
  8
51
 10
7.1251
 20
10.4140
 30
0.0000
  0
SEQEND
  8
0
  0
POLYLINE
  8
51
 66
1
 10
0.0000
 20
0.0000
 30
0.0000
 40
0.0508
 41
0.0508
 70
0
  0
VERTEX
  8
51
 10
7.1251
 20
9.6520
 30
0.0000
 42
1.0000
  0
VERTEX
  8
51
 10
7.1759
 20
9.6520
 30
0.0000
  0
SEQEND
  8
0
  0
POLYLINE
  8
51
 66
1
 10
0.0000
 20
0.0000
 30
0.0000
 40
0.1016
 41
0.1016
 70
0
  0
VERTEX
  8
51
 10
8.4705
 20
9.6770
 30
0.0000
  0
VERTEX
  8
51
 10
8.4705
 20
10.4140
 30
0.0000
  0
SEQEND
  8
0
  0
POLYLINE
  8
51
 66
1
 10
0.0000
 20
0.0000
 30
0.0000
 40
0.0508
 41
0.0508
 70
0
  0
VERTEX
  8
51
 10
8.4959
 20
10.4140
 30
0.0000
 42
1.0000
  0
VERTEX
  8
51
 10
8.4451
 20
10.4140
 30
0.0000
  0
SEQEND
  8
0
  0
POLYLINE
  8
51
 66
1
 10
0.0000
 20
0.0000
 30
0.0000
 40
0.0508
 41
0.0508
 70
0
  0
VERTEX
  8
51
 10
8.4451
 20
9.6770
 30
0.0000
 42
1.0000
  0
VERTEX
  8
51
 10
8.4959
 20
9.6770
 30
0.0000
  0
SEQEND
  8
0
  0
POLYLINE
  8
21
 66
1
 10
0.0000
 20
0.0000
 30
0.0000
 40
0.3048
 41
0.3048
 70
0
  0
VERTEX
  8
21
 10
7.3025
 20
10.0330
 30
0.0000
  0
VERTEX
  8
21
 10
8.3185
 20
10.0330
 30
0.0000
  0
SEQEND
  8
0
  0
POLYLINE
  8
21
 66
1
 10
0.0000
 20
0.0000
 30
0.0000
 40
0.1524
 41
0.1524
 70
0
  0
VERTEX
  8
21
 10
8.3185
 20
9.9568
 30
0.0000
 42
1.0000
  0
VERTEX
  8
21
 10
8.3185
 20
10.1092
 30
0.0000
  0
SEQEND
  8
0
  0
POLYLINE
  8
21
 66
1
 10
0.0000
 20
0.0000
 30
0.0000
 40
0.1524
 41
0.1524
 70
0
  0
VERTEX
  8
21
 10
7.3025
 20
10.1092
 30
0.0000
 42
1.0000
  0
VERTEX
  8
21
 10
7.3025
 20
9.9568
 30
0.0000
  0
SEQEND
  8
0
  0
INSERT
  8
51
  2
RECT
 10
7.8094
 20
9.3159
 30
0.0000
 41
0.7501
 42
1.4501
 43
1.0000
 50
90.0000
  0
INSERT
  8
51
  2
RECT
 10
7.8094
 20
10.7637
 30
0.0000
 41
0.7501
 42
1.4501
 43
1.0000
 50
90.0000
  0
POLYLINE
  8
51
 66
1
 10
0.0000
 20
0.0000
 30
0.0000
 40
0.1016
 41
0.1016
 70
0
  0
VERTEX
  8
51
 10
8.2425
 20
6.7695
 30
0.0000
  0
VERTEX
  8
51
 10
8.2425
 20
6.0575
 30
0.0000
  0
SEQEND
  8
0
  0
POLYLINE
  8
51
 66
1
 10
0.0000
 20
0.0000
 30
0.0000
 40
0.0508
 41
0.0508
 70
0
  0
VERTEX
  8
51
 10
8.2171
 20
6.0575
 30
0.0000
 42
1.0000
  0
VERTEX
  8
51
 10
8.2679
 20
6.0575
 30
0.0000
  0
SEQEND
  8
0
  0
POLYLINE
  8
51
 66
1
 10
0.0000
 20
0.0000
 30
0.0000
 40
0.0508
 41
0.0508
 70
0
  0
VERTEX
  8
51
 10
8.2679
 20
6.7695
 30
0.0000
 42
1.0000
  0
VERTEX
  8
51
 10
8.2171
 20
6.7695
 30
0.0000
  0
SEQEND
  8
0
  0
POLYLINE
  8
51
 66
1
 10
0.0000
 20
0.0000
 30
0.0000
 40
0.1016
 41
0.1016
 70
0
  0
VERTEX
  8
51
 10
7.3915
 20
6.7695
 30
0.0000
  0
VERTEX
  8
51
 10
7.3915
 20
6.0575
 30
0.0000
  0
SEQEND
  8
0
  0
POLYLINE
  8
51
 66
1
 10
0.0000
 20
0.0000
 30
0.0000
 40
0.0508
 41
0.0508
 70
0
  0
VERTEX
  8
51
 10
7.3661
 20
6.0575
 30
0.0000
 42
1.0000
  0
VERTEX
  8
51
 10
7.4169
 20
6.0575
 30
0.0000
  0
SEQEND
  8
0
  0
POLYLINE
  8
51
 66
1
 10
0.0000
 20
0.0000
 30
0.0000
 40
0.0508
 41
0.0508
 70
0
  0
VERTEX
  8
51
 10
7.4169
 20
6.7695
 30
0.0000
 42
1.0000
  0
VERTEX
  8
51
 10
7.3661
 20
6.7695
 30
0.0000
  0
SEQEND
  8
0
  0
POLYLINE
  8
21
 66
1
 10
0.0000
 20
0.0000
 30
0.0000
 40
0.3048
 41
0.3048
 70
0
  0
VERTEX
  8
21
 10
8.2105
 20
6.4135
 30
0.0000
  0
VERTEX
  8
21
 10
7.4105
 20
6.4135
 30
0.0000
  0
SEQEND
  8
0
  0
POLYLINE
  8
21
 66
1
 10
0.0000
 20
0.0000
 30
0.0000
 40
0.1524
 41
0.1524
 70
0
  0
VERTEX
  8
21
 10
7.4105
 20
6.4897
 30
0.0000
 42
1.0000
  0
VERTEX
  8
21
 10
7.4105
 20
6.3373
 30
0.0000
  0
SEQEND
  8
0
  0
POLYLINE
  8
21
 66
1
 10
0.0000
 20
0.0000
 30
0.0000
 40
0.1524
 41
0.1524
 70
0
  0
VERTEX
  8
21
 10
8.2105
 20
6.3373
 30
0.0000
 42
1.0000
  0
VERTEX
  8
21
 10
8.2105
 20
6.4897
 30
0.0000
  0
SEQEND
  8
0
  0
INSERT
  8
51
  2
RECT
 10
7.8156
 20
7.0017
 30
0.0000
 41
0.5001
 42
0.9500
 43
1.0000
 50
270.0000
  0
INSERT
  8
51
  2
RECT
 10
7.8156
 20
5.8333
 30
0.0000
 41
0.5001
 42
0.9500
 43
1.0000
 50
270.0000
  0
POLYLINE
  8
51
 66
1
 10
0.0000
 20
0.0000
 30
0.0000
 40
0.1524
 41
0.1524
 70
0
  0
VERTEX
  8
51
 10
24.8190
 20
5.8900
 30
0.0000
  0
VERTEX
  8
51
 10
20.5690
 20
5.8900
 30
0.0000
  0
SEQEND
  8
0
  0
POLYLINE
  8
51
 66
1
 10
0.0000
 20
0.0000
 30
0.0000
 40
0.0762
 41
0.0762
 70
0
  0
VERTEX
  8
51
 10
20.5690
 20
5.9281
 30
0.0000
 42
1.0000
  0
VERTEX
  8
51
 10
20.5690
 20
5.8519
 30
0.0000
  0
SEQEND
  8
0
  0
POLYLINE
  8
51
 66
1
 10
0.0000
 20
0.0000
 30
0.0000
 40
0.0762
 41
0.0762
 70
0
  0
VERTEX
  8
51
 10
24.8190
 20
5.8519
 30
0.0000
 42
1.0000
  0
VERTEX
  8
51
 10
24.8190
 20
5.9281
 30
0.0000
  0
SEQEND
  8
0
  0
POLYLINE
  8
51
 66
1
 10
0.0000
 20
0.0000
 30
0.0000
 40
0.1524
 41
0.1524
 70
0
  0
VERTEX
  8
51
 10
20.5690
 20
5.8900
 30
0.0000
  0
VERTEX
  8
51
 10
20.5690
 20
11.9900
 30
0.0000
  0
SEQEND
  8
0
  0
POLYLINE
  8
51
 66
1
 10
0.0000
 20
0.0000
 30
0.0000
 40
0.0762
 41
0.0762
 70
0
  0
VERTEX
  8
51
 10
20.6071
 20
11.9900
 30
0.0000
 42
1.0000
  0
VERTEX
  8
51
 10
20.5309
 20
11.9900
 30
0.0000
  0
SEQEND
  8
0
  0
POLYLINE
  8
51
 66
1
 10
0.0000
 20
0.0000
 30
0.0000
 40
0.0762
 41
0.0762
 70
0
  0
VERTEX
  8
51
 10
20.5309
 20
5.8900
 30
0.0000
 42
1.0000
  0
VERTEX
  8
51
 10
20.6071
 20
5.8900
 30
0.0000
  0
SEQEND
  8
0
  0
POLYLINE
  8
51
 66
1
 10
0.0000
 20
0.0000
 30
0.0000
 40
0.1524
 41
0.1524
 70
0
  0
VERTEX
  8
51
 10
20.5690
 20
11.9900
 30
0.0000
  0
VERTEX
  8
51
 10
24.8190
 20
11.9900
 30
0.0000
  0
SEQEND
  8
0
  0
POLYLINE
  8
51
 66
1
 10
0.0000
 20
0.0000
 30
0.0000
 40
0.0762
 41
0.0762
 70
0
  0
VERTEX
  8
51
 10
24.8190
 20
11.9519
 30
0.0000
 42
1.0000
  0
VERTEX
  8
51
 10
24.8190
 20
12.0281
 30
0.0000
  0
SEQEND
  8
0
  0
POLYLINE
  8
51
 66
1
 10
0.0000
 20
0.0000
 30
0.0000
 40
0.0762
 41
0.0762
 70
0
  0
VERTEX
  8
51
 10
20.5690
 20
12.0281
 30
0.0000
 42
1.0000
  0
VERTEX
  8
51
 10
20.5690
 20
11.9519
 30
0.0000
  0
SEQEND
  8
0
  0
POLYLINE
  8
51
 66
1
 10
0.0000
 20
0.0000
 30
0.0000
 40
0.1524
 41
0.1524
 70
0
  0
VERTEX
  8
51
 10
24.8190
 20
11.9900
 30
0.0000
  0
VERTEX
  8
51
 10
24.8190
 20
5.8900
 30
0.0000
  0
SEQEND
  8
0
  0
POLYLINE
  8
51
 66
1
 10
0.0000
 20
0.0000
 30
0.0000
 40
0.0762
 41
0.0762
 70
0
  0
VERTEX
  8
51
 10
24.7809
 20
5.8900
 30
0.0000
 42
1.0000
  0
VERTEX
  8
51
 10
24.8571
 20
5.8900
 30
0.0000
  0
SEQEND
  8
0
  0
POLYLINE
  8
51
 66
1
 10
0.0000
 20
0.0000
 30
0.0000
 40
0.0762
 41
0.0762
 70
0
  0
VERTEX
  8
51
 10
24.8571
 20
11.9900
 30
0.0000
 42
1.0000
  0
VERTEX
  8
51
 10
24.7809
 20
11.9900
 30
0.0000
  0
SEQEND
  8
0
  0
POLYLINE
  8
21
 66
1
 10
0.0000
 20
0.0000
 30
0.0000
 40
0.1524
 41
0.1524
 70
0
  0
VERTEX
  8
21
 10
23.1190
 20
5.8900
 30
0.0000
  0
VERTEX
  8
21
 10
20.5190
 20
5.8900
 30
0.0000
  0
SEQEND
  8
0
  0
POLYLINE
  8
21
 66
1
 10
0.0000
 20
0.0000
 30
0.0000
 40
0.0762
 41
0.0762
 70
0
  0
VERTEX
  8
21
 10
20.5190
 20
5.9281
 30
0.0000
 42
1.0000
  0
VERTEX
  8
21
 10
20.5190
 20
5.8519
 30
0.0000
  0
SEQEND
  8
0
  0
POLYLINE
  8
21
 66
1
 10
0.0000
 20
0.0000
 30
0.0000
 40
0.0762
 41
0.0762
 70
0
  0
VERTEX
  8
21
 10
23.1190
 20
5.8519
 30
0.0000
 42
1.0000
  0
VERTEX
  8
21
 10
23.1190
 20
5.9281
 30
0.0000
  0
SEQEND
  8
0
  0
POLYLINE
  8
21
 66
1
 10
0.0000
 20
0.0000
 30
0.0000
 40
0.1524
 41
0.1524
 70
0
  0
VERTEX
  8
21
 10
20.5190
 20
5.8900
 30
0.0000
  0
VERTEX
  8
21
 10
20.5190
 20
6.9900
 30
0.0000
  0
SEQEND
  8
0
  0
POLYLINE
  8
21
 66
1
 10
0.0000
 20
0.0000
 30
0.0000
 40
0.0762
 41
0.0762
 70
0
  0
VERTEX
  8
21
 10
20.5571
 20
6.9900
 30
0.0000
 42
1.0000
  0
VERTEX
  8
21
 10
20.4809
 20
6.9900
 30
0.0000
  0
SEQEND
  8
0
  0
POLYLINE
  8
21
 66
1
 10
0.0000
 20
0.0000
 30
0.0000
 40
0.0762
 41
0.0762
 70
0
  0
VERTEX
  8
21
 10
20.4809
 20
5.8900
 30
0.0000
 42
1.0000
  0
VERTEX
  8
21
 10
20.5571
 20
5.8900
 30
0.0000
  0
SEQEND
  8
0
  0
POLYLINE
  8
21
 66
1
 10
0.0000
 20
0.0000
 30
0.0000
 40
0.1524
 41
0.1524
 70
0
  0
VERTEX
  8
21
 10
20.5190
 20
10.7900
 30
0.0000
  0
VERTEX
  8
21
 10
20.5190
 20
11.9900
 30
0.0000
  0
SEQEND
  8
0
  0
POLYLINE
  8
21
 66
1
 10
0.0000
 20
0.0000
 30
0.0000
 40
0.0762
 41
0.0762
 70
0
  0
VERTEX
  8
21
 10
20.5571
 20
11.9900
 30
0.0000
 42
1.0000
  0
VERTEX
  8
21
 10
20.4809
 20
11.9900
 30
0.0000
  0
SEQEND
  8
0
  0
POLYLINE
  8
21
 66
1
 10
0.0000
 20
0.0000
 30
0.0000
 40
0.0762
 41
0.0762
 70
0
  0
VERTEX
  8
21
 10
20.4809
 20
10.7900
 30
0.0000
 42
1.0000
  0
VERTEX
  8
21
 10
20.5571
 20
10.7900
 30
0.0000
  0
SEQEND
  8
0
  0
POLYLINE
  8
21
 66
1
 10
0.0000
 20
0.0000
 30
0.0000
 40
0.1524
 41
0.1524
 70
0
  0
VERTEX
  8
21
 10
20.5190
 20
11.9900
 30
0.0000
  0
VERTEX
  8
21
 10
23.1190
 20
11.9900
 30
0.0000
  0
SEQEND
  8
0
  0
POLYLINE
  8
21
 66
1
 10
0.0000
 20
0.0000
 30
0.0000
 40
0.0762
 41
0.0762
 70
0
  0
VERTEX
  8
21
 10
23.1190
 20
11.9519
 30
0.0000
 42
1.0000
  0
VERTEX
  8
21
 10
23.1190
 20
12.0281
 30
0.0000
  0
SEQEND
  8
0
  0
POLYLINE
  8
21
 66
1
 10
0.0000
 20
0.0000
 30
0.0000
 40
0.0762
 41
0.0762
 70
0
  0
VERTEX
  8
21
 10
20.5190
 20
12.0281
 30
0.0000
 42
1.0000
  0
VERTEX
  8
21
 10
20.5190
 20
11.9519
 30
0.0000
  0
SEQEND
  8
0
  0
POLYLINE
  8
21
 66
1
 10
0.0000
 20
0.0000
 30
0.0000
 40
0.1524
 41
0.1524
 70
0
  0
VERTEX
  8
21
 10
24.8190
 20
6.7900
 30
0.0000
  0
VERTEX
  8
21
 10
24.8190
 20
10.9900
 30
0.0000
  0
SEQEND
  8
0
  0
POLYLINE
  8
21
 66
1
 10
0.0000
 20
0.0000
 30
0.0000
 40
0.0762
 41
0.0762
 70
0
  0
VERTEX
  8
21
 10
24.8571
 20
10.9900
 30
0.0000
 42
1.0000
  0
VERTEX
  8
21
 10
24.7809
 20
10.9900
 30
0.0000
  0
SEQEND
  8
0
  0
POLYLINE
  8
21
 66
1
 10
0.0000
 20
0.0000
 30
0.0000
 40
0.0762
 41
0.0762
 70
0
  0
VERTEX
  8
21
 10
24.7809
 20
6.7900
 30
0.0000
 42
1.0000
  0
VERTEX
  8
21
 10
24.8571
 20
6.7900
 30
0.0000
  0
SEQEND
  8
0
  0
POLYLINE
  8
51
 66
1
 10
0.0000
 20
0.0000
 30
0.0000
 40
0.1524
 41
0.1524
 70
0
  0
VERTEX
  8
51
 10
0.6445
 20
11.8900
 30
0.0000
  0
VERTEX
  8
51
 10
4.8945
 20
11.8900
 30
0.0000
  0
SEQEND
  8
0
  0
POLYLINE
  8
51
 66
1
 10
0.0000
 20
0.0000
 30
0.0000
 40
0.0762
 41
0.0762
 70
0
  0
VERTEX
  8
51
 10
4.8945
 20
11.8519
 30
0.0000
 42
1.0000
  0
VERTEX
  8
51
 10
4.8945
 20
11.9281
 30
0.0000
  0
SEQEND
  8
0
  0
POLYLINE
  8
51
 66
1
 10
0.0000
 20
0.0000
 30
0.0000
 40
0.0762
 41
0.0762
 70
0
  0
VERTEX
  8
51
 10
0.6445
 20
11.9281
 30
0.0000
 42
1.0000
  0
VERTEX
  8
51
 10
0.6445
 20
11.8519
 30
0.0000
  0
SEQEND
  8
0
  0
POLYLINE
  8
51
 66
1
 10
0.0000
 20
0.0000
 30
0.0000
 40
0.1524
 41
0.1524
 70
0
  0
VERTEX
  8
51
 10
4.8945
 20
11.8900
 30
0.0000
  0
VERTEX
  8
51
 10
4.8945
 20
5.7900
 30
0.0000
  0
SEQEND
  8
0
  0
POLYLINE
  8
51
 66
1
 10
0.0000
 20
0.0000
 30
0.0000
 40
0.0762
 41
0.0762
 70
0
  0
VERTEX
  8
51
 10
4.8564
 20
5.7900
 30
0.0000
 42
1.0000
  0
VERTEX
  8
51
 10
4.9326
 20
5.7900
 30
0.0000
  0
SEQEND
  8
0
  0
POLYLINE
  8
51
 66
1
 10
0.0000
 20
0.0000
 30
0.0000
 40
0.0762
 41
0.0762
 70
0
  0
VERTEX
  8
51
 10
4.9326
 20
11.8900
 30
0.0000
 42
1.0000
  0
VERTEX
  8
51
 10
4.8564
 20
11.8900
 30
0.0000
  0
SEQEND
  8
0
  0
POLYLINE
  8
51
 66
1
 10
0.0000
 20
0.0000
 30
0.0000
 40
0.1524
 41
0.1524
 70
0
  0
VERTEX
  8
51
 10
4.8945
 20
5.7900
 30
0.0000
  0
VERTEX
  8
51
 10
0.6445
 20
5.7900
 30
0.0000
  0
SEQEND
  8
0
  0
POLYLINE
  8
51
 66
1
 10
0.0000
 20
0.0000
 30
0.0000
 40
0.0762
 41
0.0762
 70
0
  0
VERTEX
  8
51
 10
0.6445
 20
5.8281
 30
0.0000
 42
1.0000
  0
VERTEX
  8
51
 10
0.6445
 20
5.7519
 30
0.0000
  0
SEQEND
  8
0
  0
POLYLINE
  8
51
 66
1
 10
0.0000
 20
0.0000
 30
0.0000
 40
0.0762
 41
0.0762
 70
0
  0
VERTEX
  8
51
 10
4.8945
 20
5.7519
 30
0.0000
 42
1.0000
  0
VERTEX
  8
51
 10
4.8945
 20
5.8281
 30
0.0000
  0
SEQEND
  8
0
  0
POLYLINE
  8
51
 66
1
 10
0.0000
 20
0.0000
 30
0.0000
 40
0.1524
 41
0.1524
 70
0
  0
VERTEX
  8
51
 10
0.6445
 20
5.7900
 30
0.0000
  0
VERTEX
  8
51
 10
0.6445
 20
11.8900
 30
0.0000
  0
SEQEND
  8
0
  0
POLYLINE
  8
51
 66
1
 10
0.0000
 20
0.0000
 30
0.0000
 40
0.0762
 41
0.0762
 70
0
  0
VERTEX
  8
51
 10
0.6826
 20
11.8900
 30
0.0000
 42
1.0000
  0
VERTEX
  8
51
 10
0.6064
 20
11.8900
 30
0.0000
  0
SEQEND
  8
0
  0
POLYLINE
  8
51
 66
1
 10
0.0000
 20
0.0000
 30
0.0000
 40
0.0762
 41
0.0762
 70
0
  0
VERTEX
  8
51
 10
0.6064
 20
5.7900
 30
0.0000
 42
1.0000
  0
VERTEX
  8
51
 10
0.6826
 20
5.7900
 30
0.0000
  0
SEQEND
  8
0
  0
POLYLINE
  8
21
 66
1
 10
0.0000
 20
0.0000
 30
0.0000
 40
0.1524
 41
0.1524
 70
0
  0
VERTEX
  8
21
 10
2.3445
 20
11.8900
 30
0.0000
  0
VERTEX
  8
21
 10
4.9445
 20
11.8900
 30
0.0000
  0
SEQEND
  8
0
  0
POLYLINE
  8
21
 66
1
 10
0.0000
 20
0.0000
 30
0.0000
 40
0.0762
 41
0.0762
 70
0
  0
VERTEX
  8
21
 10
4.9445
 20
11.8519
 30
0.0000
 42
1.0000
  0
VERTEX
  8
21
 10
4.9445
 20
11.9281
 30
0.0000
  0
SEQEND
  8
0
  0
POLYLINE
  8
21
 66
1
 10
0.0000
 20
0.0000
 30
0.0000
 40
0.0762
 41
0.0762
 70
0
  0
VERTEX
  8
21
 10
2.3445
 20
11.9281
 30
0.0000
 42
1.0000
  0
VERTEX
  8
21
 10
2.3445
 20
11.8519
 30
0.0000
  0
SEQEND
  8
0
  0
POLYLINE
  8
21
 66
1
 10
0.0000
 20
0.0000
 30
0.0000
 40
0.1524
 41
0.1524
 70
0
  0
VERTEX
  8
21
 10
4.9445
 20
11.8900
 30
0.0000
  0
VERTEX
  8
21
 10
4.9445
 20
10.7900
 30
0.0000
  0
SEQEND
  8
0
  0
POLYLINE
  8
21
 66
1
 10
0.0000
 20
0.0000
 30
0.0000
 40
0.0762
 41
0.0762
 70
0
  0
VERTEX
  8
21
 10
4.9064
 20
10.7900
 30
0.0000
 42
1.0000
  0
VERTEX
  8
21
 10
4.9826
 20
10.7900
 30
0.0000
  0
SEQEND
  8
0
  0
POLYLINE
  8
21
 66
1
 10
0.0000
 20
0.0000
 30
0.0000
 40
0.0762
 41
0.0762
 70
0
  0
VERTEX
  8
21
 10
4.9826
 20
11.8900
 30
0.0000
 42
1.0000
  0
VERTEX
  8
21
 10
4.9064
 20
11.8900
 30
0.0000
  0
SEQEND
  8
0
  0
POLYLINE
  8
21
 66
1
 10
0.0000
 20
0.0000
 30
0.0000
 40
0.1524
 41
0.1524
 70
0
  0
VERTEX
  8
21
 10
4.9445
 20
6.9900
 30
0.0000
  0
VERTEX
  8
21
 10
4.9445
 20
5.7900
 30
0.0000
  0
SEQEND
  8
0
  0
POLYLINE
  8
21
 66
1
 10
0.0000
 20
0.0000
 30
0.0000
 40
0.0762
 41
0.0762
 70
0
  0
VERTEX
  8
21
 10
4.9064
 20
5.7900
 30
0.0000
 42
1.0000
  0
VERTEX
  8
21
 10
4.9826
 20
5.7900
 30
0.0000
  0
SEQEND
  8
0
  0
POLYLINE
  8
21
 66
1
 10
0.0000
 20
0.0000
 30
0.0000
 40
0.0762
 41
0.0762
 70
0
  0
VERTEX
  8
21
 10
4.9826
 20
6.9900
 30
0.0000
 42
1.0000
  0
VERTEX
  8
21
 10
4.9064
 20
6.9900
 30
0.0000
  0
SEQEND
  8
0
  0
POLYLINE
  8
21
 66
1
 10
0.0000
 20
0.0000
 30
0.0000
 40
0.1524
 41
0.1524
 70
0
  0
VERTEX
  8
21
 10
4.9445
 20
5.7900
 30
0.0000
  0
VERTEX
  8
21
 10
2.3445
 20
5.7900
 30
0.0000
  0
SEQEND
  8
0
  0
POLYLINE
  8
21
 66
1
 10
0.0000
 20
0.0000
 30
0.0000
 40
0.0762
 41
0.0762
 70
0
  0
VERTEX
  8
21
 10
2.3445
 20
5.8281
 30
0.0000
 42
1.0000
  0
VERTEX
  8
21
 10
2.3445
 20
5.7519
 30
0.0000
  0
SEQEND
  8
0
  0
POLYLINE
  8
21
 66
1
 10
0.0000
 20
0.0000
 30
0.0000
 40
0.0762
 41
0.0762
 70
0
  0
VERTEX
  8
21
 10
4.9445
 20
5.7519
 30
0.0000
 42
1.0000
  0
VERTEX
  8
21
 10
4.9445
 20
5.8281
 30
0.0000
  0
SEQEND
  8
0
  0
POLYLINE
  8
21
 66
1
 10
0.0000
 20
0.0000
 30
0.0000
 40
0.1524
 41
0.1524
 70
0
  0
VERTEX
  8
21
 10
0.6445
 20
10.9900
 30
0.0000
  0
VERTEX
  8
21
 10
0.6445
 20
6.7900
 30
0.0000
  0
SEQEND
  8
0
  0
POLYLINE
  8
21
 66
1
 10
0.0000
 20
0.0000
 30
0.0000
 40
0.0762
 41
0.0762
 70
0
  0
VERTEX
  8
21
 10
0.6064
 20
6.7900
 30
0.0000
 42
1.0000
  0
VERTEX
  8
21
 10
0.6826
 20
6.7900
 30
0.0000
  0
SEQEND
  8
0
  0
POLYLINE
  8
21
 66
1
 10
0.0000
 20
0.0000
 30
0.0000
 40
0.0762
 41
0.0762
 70
0
  0
VERTEX
  8
21
 10
0.6826
 20
10.9900
 30
0.0000
 42
1.0000
  0
VERTEX
  8
21
 10
0.6064
 20
10.9900
 30
0.0000
  0
SEQEND
  8
0
  0
POLYLINE
  8
21
 66
1
 10
0.0000
 20
0.0000
 30
0.0000
 40
0.1524
 41
0.1524
 70
0
  0
VERTEX
  8
21
 10
3.6703
 20
12.5095
 30
0.0000
  0
VERTEX
  8
21
 10
3.9878
 20
12.2555
 30
0.0000
  0
SEQEND
  8
0
  0
POLYLINE
  8
21
 66
1
 10
0.0000
 20
0.0000
 30
0.0000
 40
0.0762
 41
0.0762
 70
0
  0
VERTEX
  8
21
 10
3.9640
 20
12.2257
 30
0.0000
 42
1.0000
  0
VERTEX
  8
21
 10
4.0116
 20
12.2853
 30
0.0000
  0
SEQEND
  8
0
  0
POLYLINE
  8
21
 66
1
 10
0.0000
 20
0.0000
 30
0.0000
 40
0.0762
 41
0.0762
 70
0
  0
VERTEX
  8
21
 10
3.6941
 20
12.5393
 30
0.0000
 42
1.0000
  0
VERTEX
  8
21
 10
3.6465
 20
12.4797
 30
0.0000
  0
SEQEND
  8
0
  0
POLYLINE
  8
21
 66
1
 10
0.0000
 20
0.0000
 30
0.0000
 40
0.1524
 41
0.1524
 70
0
  0
VERTEX
  8
21
 10
3.9878
 20
12.2555
 30
0.0000
  0
VERTEX
  8
21
 10
3.9878
 20
12.7635
 30
0.0000
  0
SEQEND
  8
0
  0
POLYLINE
  8
21
 66
1
 10
0.0000
 20
0.0000
 30
0.0000
 40
0.0762
 41
0.0762
 70
0
  0
VERTEX
  8
21
 10
4.0259
 20
12.7635
 30
0.0000
 42
1.0000
  0
VERTEX
  8
21
 10
3.9497
 20
12.7635
 30
0.0000
  0
SEQEND
  8
0
  0
POLYLINE
  8
21
 66
1
 10
0.0000
 20
0.0000
 30
0.0000
 40
0.0762
 41
0.0762
 70
0
  0
VERTEX
  8
21
 10
3.9497
 20
12.2555
 30
0.0000
 42
1.0000
  0
VERTEX
  8
21
 10
4.0259
 20
12.2555
 30
0.0000
  0
SEQEND
  8
0
  0
POLYLINE
  8
21
 66
1
 10
0.0000
 20
0.0000
 30
0.0000
 40
0.1524
 41
0.1524
 70
0
  0
VERTEX
  8
21
 10
3.9878
 20
12.7635
 30
0.0000
  0
VERTEX
  8
21
 10
3.6703
 20
12.5095
 30
0.0000
  0
SEQEND
  8
0
  0
POLYLINE
  8
21
 66
1
 10
0.0000
 20
0.0000
 30
0.0000
 40
0.0762
 41
0.0762
 70
0
  0
VERTEX
  8
21
 10
3.6465
 20
12.5393
 30
0.0000
 42
1.0000
  0
VERTEX
  8
21
 10
3.6941
 20
12.4797
 30
0.0000
  0
SEQEND
  8
0
  0
POLYLINE
  8
21
 66
1
 10
0.0000
 20
0.0000
 30
0.0000
 40
0.0762
 41
0.0762
 70
0
  0
VERTEX
  8
21
 10
4.0116
 20
12.7337
 30
0.0000
 42
1.0000
  0
VERTEX
  8
21
 10
3.9640
 20
12.7933
 30
0.0000
  0
SEQEND
  8
0
  0
POLYLINE
  8
21
 66
1
 10
0.0000
 20
0.0000
 30
0.0000
 40
0.1524
 41
0.1524
 70
0
  0
VERTEX
  8
21
 10
3.8767
 20
12.3444
 30
0.0000
  0
VERTEX
  8
21
 10
3.9878
 20
12.3444
 30
0.0000
  0
SEQEND
  8
0
  0
POLYLINE
  8
21
 66
1
 10
0.0000
 20
0.0000
 30
0.0000
 40
0.0762
 41
0.0762
 70
0
  0
VERTEX
  8
21
 10
3.9878
 20
12.3063
 30
0.0000
 42
1.0000
  0
VERTEX
  8
21
 10
3.9878
 20
12.3825
 30
0.0000
  0
SEQEND
  8
0
  0
POLYLINE
  8
21
 66
1
 10
0.0000
 20
0.0000
 30
0.0000
 40
0.0762
 41
0.0762
 70
0
  0
VERTEX
  8
21
 10
3.8767
 20
12.3825
 30
0.0000
 42
1.0000
  0
VERTEX
  8
21
 10
3.8767
 20
12.3063
 30
0.0000
  0
SEQEND
  8
0
  0
POLYLINE
  8
21
 66
1
 10
0.0000
 20
0.0000
 30
0.0000
 40
0.1524
 41
0.1524
 70
0
  0
VERTEX
  8
21
 10
3.6862
 20
12.4968
 30
0.0000
  0
VERTEX
  8
21
 10
3.9878
 20
12.4968
 30
0.0000
  0
SEQEND
  8
0
  0
POLYLINE
  8
21
 66
1
 10
0.0000
 20
0.0000
 30
0.0000
 40
0.0762
 41
0.0762
 70
0
  0
VERTEX
  8
21
 10
3.9878
 20
12.4587
 30
0.0000
 42
1.0000
  0
VERTEX
  8
21
 10
3.9878
 20
12.5349
 30
0.0000
  0
SEQEND
  8
0
  0
POLYLINE
  8
21
 66
1
 10
0.0000
 20
0.0000
 30
0.0000
 40
0.0762
 41
0.0762
 70
0
  0
VERTEX
  8
21
 10
3.6862
 20
12.5349
 30
0.0000
 42
1.0000
  0
VERTEX
  8
21
 10
3.6862
 20
12.4587
 30
0.0000
  0
SEQEND
  8
0
  0
POLYLINE
  8
21
 66
1
 10
0.0000
 20
0.0000
 30
0.0000
 40
0.1524
 41
0.1524
 70
0
  0
VERTEX
  8
21
 10
3.8449
 20
12.6492
 30
0.0000
  0
VERTEX
  8
21
 10
3.9878
 20
12.6492
 30
0.0000
  0
SEQEND
  8
0
  0
POLYLINE
  8
21
 66
1
 10
0.0000
 20
0.0000
 30
0.0000
 40
0.0762
 41
0.0762
 70
0
  0
VERTEX
  8
21
 10
3.9878
 20
12.6111
 30
0.0000
 42
1.0000
  0
VERTEX
  8
21
 10
3.9878
 20
12.6873
 30
0.0000
  0
SEQEND
  8
0
  0
POLYLINE
  8
21
 66
1
 10
0.0000
 20
0.0000
 30
0.0000
 40
0.0762
 41
0.0762
 70
0
  0
VERTEX
  8
21
 10
3.8449
 20
12.6873
 30
0.0000
 42
1.0000
  0
VERTEX
  8
21
 10
3.8449
 20
12.6111
 30
0.0000
  0
SEQEND
  8
0
  0
POLYLINE
  8
51
 66
1
 10
0.0000
 20
0.0000
 30
0.0000
 40
0.1016
 41
0.1016
 70
0
  0
VERTEX
  8
51
 10
3.0100
 20
12.2095
 30
0.0000
 42
0.9168
  0
VERTEX
  8
51
 10
3.0100
 20
12.8095
 30
0.0000
  0
SEQEND
  8
0
  0
POLYLINE
  8
51
 66
1
 10
0.0000
 20
0.0000
 30
0.0000
 40
0.0508
 41
0.0508
 70
0
  0
VERTEX
  8
51
 10
3.0078
 20
12.2348
 30
0.0000
 42
1.0000
  0
VERTEX
  8
51
 10
3.0122
 20
12.1842
 30
0.0000
  0
SEQEND
  8
0
  0
POLYLINE
  8
51
 66
1
 10
0.0000
 20
0.0000
 30
0.0000
 40
0.0508
 41
0.0508
 70
0
  0
VERTEX
  8
51
 10
3.0122
 20
12.8348
 30
0.0000
 42
1.0000
  0
VERTEX
  8
51
 10
3.0078
 20
12.7842
 30
0.0000
  0
SEQEND
  8
0
  0
POLYLINE
  8
51
 66
1
 10
0.0000
 20
0.0000
 30
0.0000
 40
0.0508
 41
0.0508
 70
0
  0
VERTEX
  8
51
 10
4.6350
 20
12.7845
 30
0.0000
 42
1.0000
  0
VERTEX
  8
51
 10
4.6350
 20
12.2345
 30
0.0000
  0
SEQEND
  8
0
  0
POLYLINE
  8
51
 66
1
 10
0.0000
 20
0.0000
 30
0.0000
 40
0.0254
 41
0.0254
 70
0
  0
VERTEX
  8
51
 10
4.6350
 20
12.7718
 30
0.0000
 42
1.0000
  0
VERTEX
  8
51
 10
4.6350
 20
12.7972
 30
0.0000
  0
SEQEND
  8
0
  0
POLYLINE
  8
51
 66
1
 10
0.0000
 20
0.0000
 30
0.0000
 40
0.0254
 41
0.0254
 70
0
  0
VERTEX
  8
51
 10
4.6350
 20
12.2218
 30
0.0000
 42
1.0000
  0
VERTEX
  8
51
 10
4.6350
 20
12.2472
 30
0.0000
  0
SEQEND
  8
0
  0
POLYLINE
  8
51
 66
1
 10
0.0000
 20
0.0000
 30
0.0000
 40
0.1016
 41
0.1016
 70
0
  0
VERTEX
  8
51
 10
3.4350
 20
12.1095
 30
0.0000
  0
VERTEX
  8
51
 10
4.1600
 20
12.1095
 30
0.0000
  0
SEQEND
  8
0
  0
POLYLINE
  8
51
 66
1
 10
0.0000
 20
0.0000
 30
0.0000
 40
0.0508
 41
0.0508
 70
0
  0
VERTEX
  8
51
 10
4.1600
 20
12.0841
 30
0.0000
 42
1.0000
  0
VERTEX
  8
51
 10
4.1600
 20
12.1349
 30
0.0000
  0
SEQEND
  8
0
  0
POLYLINE
  8
51
 66
1
 10
0.0000
 20
0.0000
 30
0.0000
 40
0.0508
 41
0.0508
 70
0
  0
VERTEX
  8
51
 10
3.4350
 20
12.1349
 30
0.0000
 42
1.0000
  0
VERTEX
  8
51
 10
3.4350
 20
12.0841
 30
0.0000
  0
SEQEND
  8
0
  0
POLYLINE
  8
51
 66
1
 10
0.0000
 20
0.0000
 30
0.0000
 40
0.1016
 41
0.1016
 70
0
  0
VERTEX
  8
51
 10
3.4600
 20
12.9095
 30
0.0000
  0
VERTEX
  8
51
 10
4.1600
 20
12.9095
 30
0.0000
  0
SEQEND
  8
0
  0
POLYLINE
  8
51
 66
1
 10
0.0000
 20
0.0000
 30
0.0000
 40
0.0508
 41
0.0508
 70
0
  0
VERTEX
  8
51
 10
4.1600
 20
12.8841
 30
0.0000
 42
1.0000
  0
VERTEX
  8
51
 10
4.1600
 20
12.9349
 30
0.0000
  0
SEQEND
  8
0
  0
POLYLINE
  8
51
 66
1
 10
0.0000
 20
0.0000
 30
0.0000
 40
0.0508
 41
0.0508
 70
0
  0
VERTEX
  8
51
 10
3.4600
 20
12.9349
 30
0.0000
 42
1.0000
  0
VERTEX
  8
51
 10
3.4600
 20
12.8841
 30
0.0000
  0
SEQEND
  8
0
  0
POLYLINE
  8
51
 66
1
 10
0.0000
 20
0.0000
 30
0.0000
 40
0.0508
 41
0.0508
 70
0
  0
VERTEX
  8
51
 10
3.1850
 20
12.0845
 30
0.0000
 42
1.0000
  0
VERTEX
  8
51
 10
3.1850
 20
12.2345
 30
0.0000
 42
1.0000
  0
VERTEX
  8
51
 10
3.1850
 20
12.0845
 30
0.0000
  0
SEQEND
  8
0
  0
INSERT
  8
51
  2
RECT
 10
3.0350
 20
12.1595
 30
0.0000
 41
0.2000
 42
0.1500
 43
1.0000
 50
90.0000
  0
INSERT
  8
51
  2
RECT
 10
3.2350
 20
12.2595
 30
0.0000
 41
0.0500
 42
0.0500
 43
1.0000
 50
90.0000
  0
INSERT
  8
51
  2
RECT
 10
3.2725
 20
12.0845
 30
0.0000
 41
0.0500
 42
0.3750
 43
1.0000
 50
90.0000
  0
INSERT
  8
51
  2
RECT
 10
3.1100
 20
12.8595
 30
0.0000
 41
0.2000
 42
0.3000
 43
1.0000
 50
90.0000
  0
INSERT
  8
51
  2
RECT
 10
3.3475
 20
12.5095
 30
0.0000
 41
0.9000
 42
0.2250
 43
1.0000
 50
90.0000
  0
INSERT
  8
51
  2
RECT
 10
4.4100
 20
12.1595
 30
0.0000
 41
0.2000
 42
0.5000
 43
1.0000
 50
90.0000
  0
INSERT
  8
51
  2
RECT
 10
4.4100
 20
12.8595
 30
0.0000
 41
0.2000
 42
0.5000
 43
1.0000
 50
90.0000
  0
INSERT
  8
51
  2
RECT
 10
4.2725
 20
12.5095
 30
0.0000
 41
0.5500
 42
0.2250
 43
1.0000
 50
90.0000
  0
INSERT
  8
51
  2
RECT
 10
4.4100
 20
12.2845
 30
0.0000
 41
0.1000
 42
0.1000
 43
1.0000
 50
90.0000
  0
INSERT
  8
51
  2
RECT
 10
4.4100
 20
12.7345
 30
0.0000
 41
0.1000
 42
0.1000
 43
1.0000
 50
90.0000
  0
INSERT
  8
21
  2
RECT
 10
3.6068
 20
12.5095
 30
0.0000
 41
0.7620
 42
0.1270
 43
1.0000
 50
90.0000
  0
POLYLINE
  8
21
 66
1
 10
0.0000
 20
0.0000
 30
0.0000
 40
0.2032
 41
0.2032
 70
0
  0
VERTEX
  8
21
 10
13.0840
 20
8.2580
 30
0.0000
  0
VERTEX
  8
21
 10
13.0840
 20
5.4580
 30
0.0000
  0
SEQEND
  8
0
  0
POLYLINE
  8
21
 66
1
 10
0.0000
 20
0.0000
 30
0.0000
 40
0.1016
 41
0.1016
 70
0
  0
VERTEX
  8
21
 10
13.0332
 20
5.4580
 30
0.0000
 42
1.0000
  0
VERTEX
  8
21
 10
13.1348
 20
5.4580
 30
0.0000
  0
SEQEND
  8
0
  0
POLYLINE
  8
21
 66
1
 10
0.0000
 20
0.0000
 30
0.0000
 40
0.1016
 41
0.1016
 70
0
  0
VERTEX
  8
21
 10
13.1348
 20
8.2580
 30
0.0000
 42
1.0000
  0
VERTEX
  8
21
 10
13.0332
 20
8.2580
 30
0.0000
  0
SEQEND
  8
0
  0
POLYLINE
  8
21
 66
1
 10
0.0000
 20
0.0000
 30
0.0000
 40
0.2032
 41
0.2032
 70
0
  0
VERTEX
  8
21
 10
13.0840
 20
5.4580
 30
0.0000
  0
VERTEX
  8
21
 10
10.2840
 20
5.4580
 30
0.0000
  0
SEQEND
  8
0
  0
POLYLINE
  8
21
 66
1
 10
0.0000
 20
0.0000
 30
0.0000
 40
0.1016
 41
0.1016
 70
0
  0
VERTEX
  8
21
 10
10.2840
 20
5.5088
 30
0.0000
 42
1.0000
  0
VERTEX
  8
21
 10
10.2840
 20
5.4072
 30
0.0000
  0
SEQEND
  8
0
  0
POLYLINE
  8
21
 66
1
 10
0.0000
 20
0.0000
 30
0.0000
 40
0.1016
 41
0.1016
 70
0
  0
VERTEX
  8
21
 10
13.0840
 20
5.4072
 30
0.0000
 42
1.0000
  0
VERTEX
  8
21
 10
13.0840
 20
5.5088
 30
0.0000
  0
SEQEND
  8
0
  0
POLYLINE
  8
21
 66
1
 10
0.0000
 20
0.0000
 30
0.0000
 40
0.2032
 41
0.2032
 70
0
  0
VERTEX
  8
21
 10
10.2840
 20
5.4580
 30
0.0000
  0
VERTEX
  8
21
 10
10.2840
 20
8.2580
 30
0.0000
  0
SEQEND
  8
0
  0
POLYLINE
  8
21
 66
1
 10
0.0000
 20
0.0000
 30
0.0000
 40
0.1016
 41
0.1016
 70
0
  0
VERTEX
  8
21
 10
10.3348
 20
8.2580
 30
0.0000
 42
1.0000
  0
VERTEX
  8
21
 10
10.2332
 20
8.2580
 30
0.0000
  0
SEQEND
  8
0
  0
POLYLINE
  8
21
 66
1
 10
0.0000
 20
0.0000
 30
0.0000
 40
0.1016
 41
0.1016
 70
0
  0
VERTEX
  8
21
 10
10.2332
 20
5.4580
 30
0.0000
 42
1.0000
  0
VERTEX
  8
21
 10
10.3348
 20
5.4580
 30
0.0000
  0
SEQEND
  8
0
  0
POLYLINE
  8
21
 66
1
 10
0.0000
 20
0.0000
 30
0.0000
 40
0.2032
 41
0.2032
 70
0
  0
VERTEX
  8
21
 10
10.2840
 20
8.2580
 30
0.0000
  0
VERTEX
  8
21
 10
13.0840
 20
8.2580
 30
0.0000
  0
SEQEND
  8
0
  0
POLYLINE
  8
21
 66
1
 10
0.0000
 20
0.0000
 30
0.0000
 40
0.1016
 41
0.1016
 70
0
  0
VERTEX
  8
21
 10
13.0840
 20
8.2072
 30
0.0000
 42
1.0000
  0
VERTEX
  8
21
 10
13.0840
 20
8.3088
 30
0.0000
  0
SEQEND
  8
0
  0
POLYLINE
  8
21
 66
1
 10
0.0000
 20
0.0000
 30
0.0000
 40
0.1016
 41
0.1016
 70
0
  0
VERTEX
  8
21
 10
10.2840
 20
8.3088
 30
0.0000
 42
1.0000
  0
VERTEX
  8
21
 10
10.2840
 20
8.2072
 30
0.0000
  0
SEQEND
  8
0
  0
POLYLINE
  8
21
 66
1
 10
0.0000
 20
0.0000
 30
0.0000
 40
0.2032
 41
0.2032
 70
0
  0
VERTEX
  8
21
 10
11.1840
 20
7.6580
 30
0.0000
 42
1.0000
  0
VERTEX
  8
21
 10
10.5840
 20
7.6580
 30
0.0000
  0
SEQEND
  8
0
  0
POLYLINE
  8
21
 66
1
 10
0.0000
 20
0.0000
 30
0.0000
 40
0.1016
 41
0.1016
 70
0
  0
VERTEX
  8
21
 10
11.1332
 20
7.6580
 30
0.0000
 42
1.0000
  0
VERTEX
  8
21
 10
11.2348
 20
7.6580
 30
0.0000
  0
SEQEND
  8
0
  0
POLYLINE
  8
21
 66
1
 10
0.0000
 20
0.0000
 30
0.0000
 40
0.1016
 41
0.1016
 70
0
  0
VERTEX
  8
21
 10
10.5332
 20
7.6580
 30
0.0000
 42
1.0000
  0
VERTEX
  8
21
 10
10.6348
 20
7.6580
 30
0.0000
  0
SEQEND
  8
0
  0
POLYLINE
  8
21
 66
1
 10
0.0000
 20
0.0000
 30
0.0000
 40
0.2032
 41
0.2032
 70
0
  0
VERTEX
  8
21
 10
11.1840
 20
7.6580
 30
0.0000
  0
VERTEX
  8
21
 10
10.5840
 20
7.6580
 30
0.0000
  0
SEQEND
  8
0
  0
POLYLINE
  8
21
 66
1
 10
0.0000
 20
0.0000
 30
0.0000
 40
0.1016
 41
0.1016
 70
0
  0
VERTEX
  8
21
 10
10.5840
 20
7.7088
 30
0.0000
 42
1.0000
  0
VERTEX
  8
21
 10
10.5840
 20
7.6072
 30
0.0000
  0
SEQEND
  8
0
  0
POLYLINE
  8
21
 66
1
 10
0.0000
 20
0.0000
 30
0.0000
 40
0.1016
 41
0.1016
 70
0
  0
VERTEX
  8
21
 10
11.1840
 20
7.6072
 30
0.0000
 42
1.0000
  0
VERTEX
  8
21
 10
11.1840
 20
7.7088
 30
0.0000
  0
SEQEND
  8
0
  0
INSERT
  8
51
  2
RECT
 10
9.6840
 20
7.8574
 30
0.0000
 41
0.2500
 42
1.0000
 43
1.0000
 50
270.0000
  0
INSERT
  8
51
  2
RECT
 10
9.6840
 20
7.3574
 30
0.0000
 41
0.2500
 42
1.0000
 43
1.0000
 50
270.0000
  0
INSERT
  8
51
  2
RECT
 10
9.6840
 20
6.8574
 30
0.0000
 41
0.2500
 42
1.0000
 43
1.0000
 50
270.0000
  0
INSERT
  8
51
  2
RECT
 10
9.6840
 20
6.3574
 30
0.0000
 41
0.2500
 42
1.0000
 43
1.0000
 50
270.0000
  0
INSERT
  8
51
  2
RECT
 10
9.6840
 20
5.8574
 30
0.0000
 41
0.2500
 42
1.0000
 43
1.0000
 50
270.0000
  0
INSERT
  8
51
  2
RECT
 10
13.6840
 20
5.8586
 30
0.0000
 41
0.2500
 42
1.0000
 43
1.0000
 50
90.0000
  0
INSERT
  8
51
  2
RECT
 10
13.6840
 20
6.3586
 30
0.0000
 41
0.2500
 42
1.0000
 43
1.0000
 50
90.0000
  0
INSERT
  8
51
  2
RECT
 10
13.6840
 20
6.8586
 30
0.0000
 41
0.2500
 42
1.0000
 43
1.0000
 50
90.0000
  0
INSERT
  8
51
  2
RECT
 10
13.6840
 20
7.3586
 30
0.0000
 41
0.2500
 42
1.0000
 43
1.0000
 50
90.0000
  0
INSERT
  8
51
  2
RECT
 10
13.6840
 20
7.8586
 30
0.0000
 41
0.2500
 42
1.0000
 43
1.0000
 50
90.0000
  0
POLYLINE
  8
51
 66
1
 10
0.0000
 20
0.0000
 30
0.0000
 40
0.2032
 41
0.2032
 70
0
  0
VERTEX
  8
51
 10
5.0800
 20
3.1750
 30
0.0000
  0
VERTEX
  8
51
 10
5.0800
 20
1.9050
 30
0.0000
  0
SEQEND
  8
0
  0
POLYLINE
  8
51
 66
1
 10
0.0000
 20
0.0000
 30
0.0000
 40
0.1016
 41
0.1016
 70
0
  0
VERTEX
  8
51
 10
5.0292
 20
1.9050
 30
0.0000
 42
1.0000
  0
VERTEX
  8
51
 10
5.1308
 20
1.9050
 30
0.0000
  0
SEQEND
  8
0
  0
POLYLINE
  8
51
 66
1
 10
0.0000
 20
0.0000
 30
0.0000
 40
0.1016
 41
0.1016
 70
0
  0
VERTEX
  8
51
 10
5.1308
 20
3.1750
 30
0.0000
 42
1.0000
  0
VERTEX
  8
51
 10
5.0292
 20
3.1750
 30
0.0000
  0
SEQEND
  8
0
  0
INSERT
  8
51
  2
RECT
 10
16.5100
 20
2.5400
 30
0.0000
 41
0.5080
 42
0.5080
 43
1.0000
 50
0.0000
  0
INSERT
  8
51
  2
RECT
 10
13.9700
 20
2.5400
 30
0.0000
 41
0.5080
 42
0.5080
 43
1.0000
 50
0.0000
  0
INSERT
  8
51
  2
RECT
 10
11.4300
 20
2.5400
 30
0.0000
 41
0.5080
 42
0.5080
 43
1.0000
 50
0.0000
  0
INSERT
  8
51
  2
RECT
 10
8.8900
 20
2.5400
 30
0.0000
 41
0.5080
 42
0.5080
 43
1.0000
 50
0.0000
  0
INSERT
  8
51
  2
RECT
 10
6.3500
 20
2.5400
 30
0.0000
 41
0.5080
 42
0.5080
 43
1.0000
 50
0.0000
  0
INSERT
  8
51
  2
RECT
 10
19.0500
 20
2.5400
 30
0.0000
 41
0.5080
 42
0.5080
 43
1.0000
 50
0.0000
  0
INSERT
  8
17
  2
ROUNDP
 10
6.3500
 20
2.5400
 30
0.0000
 41
1.7780
 42
1.7780
 43
1.0000
 50
90.0000
  0
INSERT
  8
17
  2
ROUNDP
 10
6.3500
 20
2.5400
 30
0.0000
 41
1.7780
 42
1.7780
 43
1.0000
 50
90.0000
  0
CIRCLE
  8
44
 10
6.3500
 20
2.5400
 30
0.0000
 40
0.5000
  0
INSERT
  8
17
  2
ROUNDP
 10
8.8900
 20
2.5400
 30
0.0000
 41
1.7780
 42
1.7780
 43
1.0000
 50
90.0000
  0
INSERT
  8
17
  2
ROUNDP
 10
8.8900
 20
2.5400
 30
0.0000
 41
1.7780
 42
1.7780
 43
1.0000
 50
90.0000
  0
CIRCLE
  8
44
 10
8.8900
 20
2.5400
 30
0.0000
 40
0.5000
  0
INSERT
  8
17
  2
ROUNDP
 10
11.4300
 20
2.5400
 30
0.0000
 41
1.7780
 42
1.7780
 43
1.0000
 50
90.0000
  0
INSERT
  8
17
  2
ROUNDP
 10
11.4300
 20
2.5400
 30
0.0000
 41
1.7780
 42
1.7780
 43
1.0000
 50
90.0000
  0
CIRCLE
  8
44
 10
11.4300
 20
2.5400
 30
0.0000
 40
0.5000
  0
INSERT
  8
17
  2
ROUNDP
 10
13.9700
 20
2.5400
 30
0.0000
 41
1.7780
 42
1.7780
 43
1.0000
 50
90.0000
  0
INSERT
  8
17
  2
ROUNDP
 10
13.9700
 20
2.5400
 30
0.0000
 41
1.7780
 42
1.7780
 43
1.0000
 50
90.0000
  0
CIRCLE
  8
44
 10
13.9700
 20
2.5400
 30
0.0000
 40
0.5000
  0
INSERT
  8
17
  2
ROUNDP
 10
16.5100
 20
2.5400
 30
0.0000
 41
1.7780
 42
1.7780
 43
1.0000
 50
90.0000
  0
INSERT
  8
17
  2
ROUNDP
 10
16.5100
 20
2.5400
 30
0.0000
 41
1.7780
 42
1.7780
 43
1.0000
 50
90.0000
  0
CIRCLE
  8
44
 10
16.5100
 20
2.5400
 30
0.0000
 40
0.5000
  0
INSERT
  8
17
  2
ROUNDP
 10
19.0500
 20
2.5400
 30
0.0000
 41
1.7780
 42
1.7780
 43
1.0000
 50
90.0000
  0
INSERT
  8
17
  2
ROUNDP
 10
19.0500
 20
2.5400
 30
0.0000
 41
1.7780
 42
1.7780
 43
1.0000
 50
90.0000
  0
CIRCLE
  8
44
 10
19.0500
 20
2.5400
 30
0.0000
 40
0.5000
  0
POLYLINE
  8
51
 66
1
 10
0.0000
 20
0.0000
 30
0.0000
 40
0.2032
 41
0.2032
 70
0
  0
VERTEX
  8
51
 10
15.2400
 20
15.8750
 30
0.0000
  0
VERTEX
  8
51
 10
15.2400
 20
14.6050
 30
0.0000
  0
SEQEND
  8
0
  0
POLYLINE
  8
51
 66
1
 10
0.0000
 20
0.0000
 30
0.0000
 40
0.1016
 41
0.1016
 70
0
  0
VERTEX
  8
51
 10
15.1892
 20
14.6050
 30
0.0000
 42
1.0000
  0
VERTEX
  8
51
 10
15.2908
 20
14.6050
 30
0.0000
  0
SEQEND
  8
0
  0
POLYLINE
  8
51
 66
1
 10
0.0000
 20
0.0000
 30
0.0000
 40
0.1016
 41
0.1016
 70
0
  0
VERTEX
  8
51
 10
15.2908
 20
15.8750
 30
0.0000
 42
1.0000
  0
VERTEX
  8
51
 10
15.1892
 20
15.8750
 30
0.0000
  0
SEQEND
  8
0
  0
INSERT
  8
51
  2
RECT
 10
16.5100
 20
15.2400
 30
0.0000
 41
0.5080
 42
0.5080
 43
1.0000
 50
0.0000
  0
INSERT
  8
51
  2
RECT
 10
19.0500
 20
15.2400
 30
0.0000
 41
0.5080
 42
0.5080
 43
1.0000
 50
0.0000
  0
INSERT
  8
17
  2
ROUNDP
 10
16.5100
 20
15.2400
 30
0.0000
 41
1.7780
 42
1.7780
 43
1.0000
 50
90.0000
  0
INSERT
  8
17
  2
ROUNDP
 10
16.5100
 20
15.2400
 30
0.0000
 41
1.7780
 42
1.7780
 43
1.0000
 50
90.0000
  0
CIRCLE
  8
44
 10
16.5100
 20
15.2400
 30
0.0000
 40
0.5000
  0
INSERT
  8
17
  2
ROUNDP
 10
19.0500
 20
15.2400
 30
0.0000
 41
1.7780
 42
1.7780
 43
1.0000
 50
90.0000
  0
INSERT
  8
17
  2
ROUNDP
 10
19.0500
 20
15.2400
 30
0.0000
 41
1.7780
 42
1.7780
 43
1.0000
 50
90.0000
  0
CIRCLE
  8
44
 10
19.0500
 20
15.2400
 30
0.0000
 40
0.5000
  0
POLYLINE
  8
51
 66
1
 10
0.0000
 20
0.0000
 30
0.0000
 40
0.2032
 41
0.2032
 70
0
  0
VERTEX
  8
51
 10
5.0800
 20
15.8750
 30
0.0000
  0
VERTEX
  8
51
 10
5.0800
 20
14.6050
 30
0.0000
  0
SEQEND
  8
0
  0
POLYLINE
  8
51
 66
1
 10
0.0000
 20
0.0000
 30
0.0000
 40
0.1016
 41
0.1016
 70
0
  0
VERTEX
  8
51
 10
5.0292
 20
14.6050
 30
0.0000
 42
1.0000
  0
VERTEX
  8
51
 10
5.1308
 20
14.6050
 30
0.0000
  0
SEQEND
  8
0
  0
POLYLINE
  8
51
 66
1
 10
0.0000
 20
0.0000
 30
0.0000
 40
0.1016
 41
0.1016
 70
0
  0
VERTEX
  8
51
 10
5.1308
 20
15.8750
 30
0.0000
 42
1.0000
  0
VERTEX
  8
51
 10
5.0292
 20
15.8750
 30
0.0000
  0
SEQEND
  8
0
  0
INSERT
  8
51
  2
RECT
 10
6.3500
 20
15.2400
 30
0.0000
 41
0.5080
 42
0.5080
 43
1.0000
 50
0.0000
  0
INSERT
  8
51
  2
RECT
 10
8.8900
 20
15.2400
 30
0.0000
 41
0.5080
 42
0.5080
 43
1.0000
 50
0.0000
  0
INSERT
  8
17
  2
ROUNDP
 10
6.3500
 20
15.2400
 30
0.0000
 41
1.7780
 42
1.7780
 43
1.0000
 50
90.0000
  0
INSERT
  8
17
  2
ROUNDP
 10
6.3500
 20
15.2400
 30
0.0000
 41
1.7780
 42
1.7780
 43
1.0000
 50
90.0000
  0
CIRCLE
  8
44
 10
6.3500
 20
15.2400
 30
0.0000
 40
0.5000
  0
INSERT
  8
17
  2
ROUNDP
 10
8.8900
 20
15.2400
 30
0.0000
 41
1.7780
 42
1.7780
 43
1.0000
 50
90.0000
  0
INSERT
  8
17
  2
ROUNDP
 10
8.8900
 20
15.2400
 30
0.0000
 41
1.7780
 42
1.7780
 43
1.0000
 50
90.0000
  0
CIRCLE
  8
44
 10
8.8900
 20
15.2400
 30
0.0000
 40
0.5000
  0
POLYLINE
  8
51
 66
1
 10
0.0000
 20
0.0000
 30
0.0000
 40
0.2032
 41
0.2032
 70
0
  0
VERTEX
  8
51
 10
17.0435
 20
7.6710
 30
0.0000
  0
VERTEX
  8
51
 10
17.0435
 20
10.8710
 30
0.0000
  0
SEQEND
  8
0
  0
POLYLINE
  8
51
 66
1
 10
0.0000
 20
0.0000
 30
0.0000
 40
0.1016
 41
0.1016
 70
0
  0
VERTEX
  8
51
 10
17.0943
 20
10.8710
 30
0.0000
 42
1.0000
  0
VERTEX
  8
51
 10
16.9927
 20
10.8710
 30
0.0000
  0
SEQEND
  8
0
  0
POLYLINE
  8
51
 66
1
 10
0.0000
 20
0.0000
 30
0.0000
 40
0.1016
 41
0.1016
 70
0
  0
VERTEX
  8
51
 10
16.9927
 20
7.6710
 30
0.0000
 42
1.0000
  0
VERTEX
  8
51
 10
17.0943
 20
7.6710
 30
0.0000
  0
SEQEND
  8
0
  0
POLYLINE
  8
51
 66
1
 10
0.0000
 20
0.0000
 30
0.0000
 40
0.2032
 41
0.2032
 70
0
  0
VERTEX
  8
51
 10
17.0435
 20
10.8710
 30
0.0000
  0
VERTEX
  8
51
 10
18.6435
 20
10.8710
 30
0.0000
  0
SEQEND
  8
0
  0
POLYLINE
  8
51
 66
1
 10
0.0000
 20
0.0000
 30
0.0000
 40
0.1016
 41
0.1016
 70
0
  0
VERTEX
  8
51
 10
18.6435
 20
10.8202
 30
0.0000
 42
1.0000
  0
VERTEX
  8
51
 10
18.6435
 20
10.9218
 30
0.0000
  0
SEQEND
  8
0
  0
POLYLINE
  8
51
 66
1
 10
0.0000
 20
0.0000
 30
0.0000
 40
0.1016
 41
0.1016
 70
0
  0
VERTEX
  8
51
 10
17.0435
 20
10.9218
 30
0.0000
 42
1.0000
  0
VERTEX
  8
51
 10
17.0435
 20
10.8202
 30
0.0000
  0
SEQEND
  8
0
  0
POLYLINE
  8
51
 66
1
 10
0.0000
 20
0.0000
 30
0.0000
 40
0.2032
 41
0.2032
 70
0
  0
VERTEX
  8
51
 10
18.6435
 20
10.8710
 30
0.0000
  0
VERTEX
  8
51
 10
18.6435
 20
7.6710
 30
0.0000
  0
SEQEND
  8
0
  0
POLYLINE
  8
51
 66
1
 10
0.0000
 20
0.0000
 30
0.0000
 40
0.1016
 41
0.1016
 70
0
  0
VERTEX
  8
51
 10
18.5927
 20
7.6710
 30
0.0000
 42
1.0000
  0
VERTEX
  8
51
 10
18.6943
 20
7.6710
 30
0.0000
  0
SEQEND
  8
0
  0
POLYLINE
  8
51
 66
1
 10
0.0000
 20
0.0000
 30
0.0000
 40
0.1016
 41
0.1016
 70
0
  0
VERTEX
  8
51
 10
18.6943
 20
10.8710
 30
0.0000
 42
1.0000
  0
VERTEX
  8
51
 10
18.5927
 20
10.8710
 30
0.0000
  0
SEQEND
  8
0
  0
POLYLINE
  8
51
 66
1
 10
0.0000
 20
0.0000
 30
0.0000
 40
0.2032
 41
0.2032
 70
0
  0
VERTEX
  8
51
 10
18.6435
 20
7.6710
 30
0.0000
  0
VERTEX
  8
51
 10
17.0435
 20
7.6710
 30
0.0000
  0
SEQEND
  8
0
  0
POLYLINE
  8
51
 66
1
 10
0.0000
 20
0.0000
 30
0.0000
 40
0.1016
 41
0.1016
 70
0
  0
VERTEX
  8
51
 10
17.0435
 20
7.7218
 30
0.0000
 42
1.0000
  0
VERTEX
  8
51
 10
17.0435
 20
7.6202
 30
0.0000
  0
SEQEND
  8
0
  0
POLYLINE
  8
51
 66
1
 10
0.0000
 20
0.0000
 30
0.0000
 40
0.1016
 41
0.1016
 70
0
  0
VERTEX
  8
51
 10
18.6435
 20
7.6202
 30
0.0000
 42
1.0000
  0
VERTEX
  8
51
 10
18.6435
 20
7.7218
 30
0.0000
  0
SEQEND
  8
0
  0
POLYLINE
  8
21
 66
1
 10
0.0000
 20
0.0000
 30
0.0000
 40
0.2032
 41
0.2032
 70
0
  0
VERTEX
  8
21
 10
16.4435
 20
11.1710
 30
0.0000
  0
VERTEX
  8
21
 10
19.2435
 20
11.1710
 30
0.0000
  0
SEQEND
  8
0
  0
POLYLINE
  8
21
 66
1
 10
0.0000
 20
0.0000
 30
0.0000
 40
0.1016
 41
0.1016
 70
0
  0
VERTEX
  8
21
 10
19.2435
 20
11.1202
 30
0.0000
 42
1.0000
  0
VERTEX
  8
21
 10
19.2435
 20
11.2218
 30
0.0000
  0
SEQEND
  8
0
  0
POLYLINE
  8
21
 66
1
 10
0.0000
 20
0.0000
 30
0.0000
 40
0.1016
 41
0.1016
 70
0
  0
VERTEX
  8
21
 10
16.4435
 20
11.2218
 30
0.0000
 42
1.0000
  0
VERTEX
  8
21
 10
16.4435
 20
11.1202
 30
0.0000
  0
SEQEND
  8
0
  0
POLYLINE
  8
21
 66
1
 10
0.0000
 20
0.0000
 30
0.0000
 40
0.2032
 41
0.2032
 70
0
  0
VERTEX
  8
21
 10
19.2435
 20
7.3710
 30
0.0000
  0
VERTEX
  8
21
 10
16.4435
 20
7.3710
 30
0.0000
  0
SEQEND
  8
0
  0
POLYLINE
  8
21
 66
1
 10
0.0000
 20
0.0000
 30
0.0000
 40
0.1016
 41
0.1016
 70
0
  0
VERTEX
  8
21
 10
16.4435
 20
7.4218
 30
0.0000
 42
1.0000
  0
VERTEX
  8
21
 10
16.4435
 20
7.3202
 30
0.0000
  0
SEQEND
  8
0
  0
POLYLINE
  8
21
 66
1
 10
0.0000
 20
0.0000
 30
0.0000
 40
0.1016
 41
0.1016
 70
0
  0
VERTEX
  8
21
 10
19.2435
 20
7.3202
 30
0.0000
 42
1.0000
  0
VERTEX
  8
21
 10
19.2435
 20
7.4218
 30
0.0000
  0
SEQEND
  8
0
  0
INSERT
  8
51
  2
RECT
 10
17.8435
 20
9.2710
 30
0.0000
 41
3.1000
 42
1.0000
 43
1.0000
 50
90.0000
  0
POLYLINE
  8
51
 66
1
 10
0.0000
 20
0.0000
 30
0.0000
 40
0.1016
 41
0.1016
 70
0
  0
VERTEX
  8
51
 10
6.2740
 20
12.8020
 30
0.0000
  0
VERTEX
  8
51
 10
6.2740
 20
12.0900
 30
0.0000
  0
SEQEND
  8
0
  0
POLYLINE
  8
51
 66
1
 10
0.0000
 20
0.0000
 30
0.0000
 40
0.0508
 41
0.0508
 70
0
  0
VERTEX
  8
51
 10
6.2486
 20
12.0900
 30
0.0000
 42
1.0000
  0
VERTEX
  8
51
 10
6.2994
 20
12.0900
 30
0.0000
  0
SEQEND
  8
0
  0
POLYLINE
  8
51
 66
1
 10
0.0000
 20
0.0000
 30
0.0000
 40
0.0508
 41
0.0508
 70
0
  0
VERTEX
  8
51
 10
6.2994
 20
12.8020
 30
0.0000
 42
1.0000
  0
VERTEX
  8
51
 10
6.2486
 20
12.8020
 30
0.0000
  0
SEQEND
  8
0
  0
POLYLINE
  8
51
 66
1
 10
0.0000
 20
0.0000
 30
0.0000
 40
0.1016
 41
0.1016
 70
0
  0
VERTEX
  8
51
 10
5.4230
 20
12.8020
 30
0.0000
  0
VERTEX
  8
51
 10
5.4230
 20
12.0900
 30
0.0000
  0
SEQEND
  8
0
  0
POLYLINE
  8
51
 66
1
 10
0.0000
 20
0.0000
 30
0.0000
 40
0.0508
 41
0.0508
 70
0
  0
VERTEX
  8
51
 10
5.3976
 20
12.0900
 30
0.0000
 42
1.0000
  0
VERTEX
  8
51
 10
5.4484
 20
12.0900
 30
0.0000
  0
SEQEND
  8
0
  0
POLYLINE
  8
51
 66
1
 10
0.0000
 20
0.0000
 30
0.0000
 40
0.0508
 41
0.0508
 70
0
  0
VERTEX
  8
51
 10
5.4484
 20
12.8020
 30
0.0000
 42
1.0000
  0
VERTEX
  8
51
 10
5.3976
 20
12.8020
 30
0.0000
  0
SEQEND
  8
0
  0
POLYLINE
  8
21
 66
1
 10
0.0000
 20
0.0000
 30
0.0000
 40
0.3048
 41
0.3048
 70
0
  0
VERTEX
  8
21
 10
6.2420
 20
12.4460
 30
0.0000
  0
VERTEX
  8
21
 10
5.4420
 20
12.4460
 30
0.0000
  0
SEQEND
  8
0
  0
POLYLINE
  8
21
 66
1
 10
0.0000
 20
0.0000
 30
0.0000
 40
0.1524
 41
0.1524
 70
0
  0
VERTEX
  8
21
 10
5.4420
 20
12.5222
 30
0.0000
 42
1.0000
  0
VERTEX
  8
21
 10
5.4420
 20
12.3698
 30
0.0000
  0
SEQEND
  8
0
  0
POLYLINE
  8
21
 66
1
 10
0.0000
 20
0.0000
 30
0.0000
 40
0.1524
 41
0.1524
 70
0
  0
VERTEX
  8
21
 10
6.2420
 20
12.3698
 30
0.0000
 42
1.0000
  0
VERTEX
  8
21
 10
6.2420
 20
12.5222
 30
0.0000
  0
SEQEND
  8
0
  0
INSERT
  8
51
  2
RECT
 10
5.8471
 20
13.0342
 30
0.0000
 41
0.5001
 42
0.9500
 43
1.0000
 50
270.0000
  0
INSERT
  8
51
  2
RECT
 10
5.8471
 20
11.8658
 30
0.0000
 41
0.5001
 42
0.9500
 43
1.0000
 50
270.0000
  0
POLYLINE
  8
21
 66
1
 10
0.0000
 20
0.0000
 30
0.0000
 40
0.3048
 41
0.3048
 70
0
  0
VERTEX
  8
21
 10
17.6053
 20
13.3350
 30
0.0000
  0
VERTEX
  8
21
 10
16.8116
 20
13.3350
 30
0.0000
  0
SEQEND
  8
0
  0
POLYLINE
  8
21
 66
1
 10
0.0000
 20
0.0000
 30
0.0000
 40
0.1524
 41
0.1524
 70
0
  0
VERTEX
  8
21
 10
16.8116
 20
13.4112
 30
0.0000
 42
1.0000
  0
VERTEX
  8
21
 10
16.8116
 20
13.2588
 30
0.0000
  0
SEQEND
  8
0
  0
POLYLINE
  8
21
 66
1
 10
0.0000
 20
0.0000
 30
0.0000
 40
0.1524
 41
0.1524
 70
0
  0
VERTEX
  8
21
 10
17.6053
 20
13.2588
 30
0.0000
 42
1.0000
  0
VERTEX
  8
21
 10
17.6053
 20
13.4112
 30
0.0000
  0
SEQEND
  8
0
  0
POLYLINE
  8
21
 66
1
 10
0.0000
 20
0.0000
 30
0.0000
 40
0.3048
 41
0.3048
 70
0
  0
VERTEX
  8
21
 10
17.2085
 20
13.7318
 30
0.0000
  0
VERTEX
  8
21
 10
17.2085
 20
12.9382
 30
0.0000
  0
SEQEND
  8
0
  0
POLYLINE
  8
21
 66
1
 10
0.0000
 20
0.0000
 30
0.0000
 40
0.1524
 41
0.1524
 70
0
  0
VERTEX
  8
21
 10
17.1323
 20
12.9382
 30
0.0000
 42
1.0000
  0
VERTEX
  8
21
 10
17.2847
 20
12.9382
 30
0.0000
  0
SEQEND
  8
0
  0
POLYLINE
  8
21
 66
1
 10
0.0000
 20
0.0000
 30
0.0000
 40
0.1524
 41
0.1524
 70
0
  0
VERTEX
  8
21
 10
17.2847
 20
13.7318
 30
0.0000
 42
1.0000
  0
VERTEX
  8
21
 10
17.1323
 20
13.7318
 30
0.0000
  0
SEQEND
  8
0
  0
POLYLINE
  8
21
 66
1
 10
0.0000
 20
0.0000
 30
0.0000
 40
0.2032
 41
0.2032
 70
0
  0
VERTEX
  8
21
 10
17.2085
 20
12.5533
 30
0.0000
 42
1.0000
  0
VERTEX
  8
21
 10
17.2085
 20
14.1167
 30
0.0000
 42
1.0000
  0
VERTEX
  8
21
 10
17.2085
 20
12.5533
 30
0.0000
  0
SEQEND
  8
0
  0
POLYLINE
  8
21
 66
1
 10
0.0000
 20
0.0000
 30
0.0000
 40
0.3048
 41
0.3048
 70
0
  0
VERTEX
  8
21
 10
8.4613
 20
13.3985
 30
0.0000
  0
VERTEX
  8
21
 10
7.6676
 20
13.3985
 30
0.0000
  0
SEQEND
  8
0
  0
POLYLINE
  8
21
 66
1
 10
0.0000
 20
0.0000
 30
0.0000
 40
0.1524
 41
0.1524
 70
0
  0
VERTEX
  8
21
 10
7.6676
 20
13.4747
 30
0.0000
 42
1.0000
  0
VERTEX
  8
21
 10
7.6676
 20
13.3223
 30
0.0000
  0
SEQEND
  8
0
  0
POLYLINE
  8
21
 66
1
 10
0.0000
 20
0.0000
 30
0.0000
 40
0.1524
 41
0.1524
 70
0
  0
VERTEX
  8
21
 10
8.4613
 20
13.3223
 30
0.0000
 42
1.0000
  0
VERTEX
  8
21
 10
8.4613
 20
13.4747
 30
0.0000
  0
SEQEND
  8
0
  0
POLYLINE
  8
21
 66
1
 10
0.0000
 20
0.0000
 30
0.0000
 40
0.2032
 41
0.2032
 70
0
  0
VERTEX
  8
21
 10
8.0645
 20
12.6168
 30
0.0000
 42
1.0000
  0
VERTEX
  8
21
 10
8.0645
 20
14.1802
 30
0.0000
 42
1.0000
  0
VERTEX
  8
21
 10
8.0645
 20
12.6168
 30
0.0000
  0
SEQEND
  8
0
  0
POLYLINE
  8
21
 66
1
 10
0.0000
 20
0.0000
 30
0.0000
 40
0.2032
 41
0.2032
 70
0
  0
VERTEX
  8
21
 10
2.5400
 20
13.2400
 30
0.0000
 42
1.0000
  0
VERTEX
  8
21
 10
2.5400
 20
17.2400
 30
0.0000
 42
1.0000
  0
VERTEX
  8
21
 10
2.5400
 20
13.2400
 30
0.0000
  0
SEQEND
  8
0
  0
INSERT
  8
17
  2
ROUNDP
 10
2.5400
 20
15.2400
 30
0.0000
 41
3.5160
 42
3.5160
 43
1.0000
 50
0.0000
  0
INSERT
  8
17
  2
ROUNDP
 10
2.5400
 20
15.2400
 30
0.0000
 41
3.5160
 42
3.5160
 43
1.0000
 50
0.0000
  0
CIRCLE
  8
44
 10
2.5400
 20
15.2400
 30
0.0000
 40
1.2500
  0
POLYLINE
  8
21
 66
1
 10
0.0000
 20
0.0000
 30
0.0000
 40
0.2032
 41
0.2032
 70
0
  0
VERTEX
  8
21
 10
22.8600
 20
13.2400
 30
0.0000
 42
1.0000
  0
VERTEX
  8
21
 10
22.8600
 20
17.2400
 30
0.0000
 42
1.0000
  0
VERTEX
  8
21
 10
22.8600
 20
13.2400
 30
0.0000
  0
SEQEND
  8
0
  0
INSERT
  8
17
  2
ROUNDP
 10
22.8600
 20
15.2400
 30
0.0000
 41
3.5160
 42
3.5160
 43
1.0000
 50
0.0000
  0
INSERT
  8
17
  2
ROUNDP
 10
22.8600
 20
15.2400
 30
0.0000
 41
3.5160
 42
3.5160
 43
1.0000
 50
0.0000
  0
CIRCLE
  8
44
 10
22.8600
 20
15.2400
 30
0.0000
 40
1.2500
  0
POLYLINE
  8
21
 66
1
 10
0.0000
 20
0.0000
 30
0.0000
 40
0.2032
 41
0.2032
 70
0
  0
VERTEX
  8
21
 10
2.5400
 20
0.5400
 30
0.0000
 42
1.0000
  0
VERTEX
  8
21
 10
2.5400
 20
4.5400
 30
0.0000
 42
1.0000
  0
VERTEX
  8
21
 10
2.5400
 20
0.5400
 30
0.0000
  0
SEQEND
  8
0
  0
INSERT
  8
17
  2
ROUNDP
 10
2.5400
 20
2.5400
 30
0.0000
 41
3.5160
 42
3.5160
 43
1.0000
 50
0.0000
  0
INSERT
  8
17
  2
ROUNDP
 10
2.5400
 20
2.5400
 30
0.0000
 41
3.5160
 42
3.5160
 43
1.0000
 50
0.0000
  0
CIRCLE
  8
44
 10
2.5400
 20
2.5400
 30
0.0000
 40
1.2500
  0
POLYLINE
  8
21
 66
1
 10
0.0000
 20
0.0000
 30
0.0000
 40
0.2032
 41
0.2032
 70
0
  0
VERTEX
  8
21
 10
22.8600
 20
0.5400
 30
0.0000
 42
1.0000
  0
VERTEX
  8
21
 10
22.8600
 20
4.5400
 30
0.0000
 42
1.0000
  0
VERTEX
  8
21
 10
22.8600
 20
0.5400
 30
0.0000
  0
SEQEND
  8
0
  0
INSERT
  8
17
  2
ROUNDP
 10
22.8600
 20
2.5400
 30
0.0000
 41
3.5160
 42
3.5160
 43
1.0000
 50
0.0000
  0
INSERT
  8
17
  2
ROUNDP
 10
22.8600
 20
2.5400
 30
0.0000
 41
3.5160
 42
3.5160
 43
1.0000
 50
0.0000
  0
CIRCLE
  8
44
 10
22.8600
 20
2.5400
 30
0.0000
 40
1.2500
  0
POLYLINE
  8
21
 66
1
 10
0.0000
 20
0.0000
 30
0.0000
 40
0.2032
 41
0.2032
 70
0
  0
VERTEX
  8
21
 10
16.1000
 20
10.5700
 30
0.0000
  0
VERTEX
  8
21
 10
16.1000
 20
16.1700
 30
0.0000
  0
SEQEND
  8
0
  0
POLYLINE
  8
21
 66
1
 10
0.0000
 20
0.0000
 30
0.0000
 40
0.1016
 41
0.1016
 70
0
  0
VERTEX
  8
21
 10
16.1508
 20
16.1700
 30
0.0000
 42
1.0000
  0
VERTEX
  8
21
 10
16.0492
 20
16.1700
 30
0.0000
  0
SEQEND
  8
0
  0
POLYLINE
  8
21
 66
1
 10
0.0000
 20
0.0000
 30
0.0000
 40
0.1016
 41
0.1016
 70
0
  0
VERTEX
  8
21
 10
16.0492
 20
10.5700
 30
0.0000
 42
1.0000
  0
VERTEX
  8
21
 10
16.1508
 20
10.5700
 30
0.0000
  0
SEQEND
  8
0
  0
POLYLINE
  8
21
 66
1
 10
0.0000
 20
0.0000
 30
0.0000
 40
0.2032
 41
0.2032
 70
0
  0
VERTEX
  8
21
 10
16.1000
 20
16.1700
 30
0.0000
  0
VERTEX
  8
21
 10
16.1000
 20
17.5700
 30
0.0000
  0
SEQEND
  8
0
  0
POLYLINE
  8
21
 66
1
 10
0.0000
 20
0.0000
 30
0.0000
 40
0.1016
 41
0.1016
 70
0
  0
VERTEX
  8
21
 10
16.1508
 20
17.5700
 30
0.0000
 42
1.0000
  0
VERTEX
  8
21
 10
16.0492
 20
17.5700
 30
0.0000
  0
SEQEND
  8
0
  0
POLYLINE
  8
21
 66
1
 10
0.0000
 20
0.0000
 30
0.0000
 40
0.1016
 41
0.1016
 70
0
  0
VERTEX
  8
21
 10
16.0492
 20
16.1700
 30
0.0000
 42
1.0000
  0
VERTEX
  8
21
 10
16.1508
 20
16.1700
 30
0.0000
  0
SEQEND
  8
0
  0
POLYLINE
  8
21
 66
1
 10
0.0000
 20
0.0000
 30
0.0000
 40
0.2032
 41
0.2032
 70
0
  0
VERTEX
  8
21
 10
16.1000
 20
17.5700
 30
0.0000
  0
VERTEX
  8
21
 10
9.1000
 20
17.5700
 30
0.0000
  0
SEQEND
  8
0
  0
POLYLINE
  8
21
 66
1
 10
0.0000
 20
0.0000
 30
0.0000
 40
0.1016
 41
0.1016
 70
0
  0
VERTEX
  8
21
 10
9.1000
 20
17.6208
 30
0.0000
 42
1.0000
  0
VERTEX
  8
21
 10
9.1000
 20
17.5192
 30
0.0000
  0
SEQEND
  8
0
  0
POLYLINE
  8
21
 66
1
 10
0.0000
 20
0.0000
 30
0.0000
 40
0.1016
 41
0.1016
 70
0
  0
VERTEX
  8
21
 10
16.1000
 20
17.5192
 30
0.0000
 42
1.0000
  0
VERTEX
  8
21
 10
16.1000
 20
17.6208
 30
0.0000
  0
SEQEND
  8
0
  0
POLYLINE
  8
21
 66
1
 10
0.0000
 20
0.0000
 30
0.0000
 40
0.2032
 41
0.2032
 70
0
  0
VERTEX
  8
21
 10
9.1000
 20
17.5700
 30
0.0000
  0
VERTEX
  8
21
 10
9.1000
 20
16.1700
 30
0.0000
  0
SEQEND
  8
0
  0
POLYLINE
  8
21
 66
1
 10
0.0000
 20
0.0000
 30
0.0000
 40
0.1016
 41
0.1016
 70
0
  0
VERTEX
  8
21
 10
9.0492
 20
16.1700
 30
0.0000
 42
1.0000
  0
VERTEX
  8
21
 10
9.1508
 20
16.1700
 30
0.0000
  0
SEQEND
  8
0
  0
POLYLINE
  8
21
 66
1
 10
0.0000
 20
0.0000
 30
0.0000
 40
0.1016
 41
0.1016
 70
0
  0
VERTEX
  8
21
 10
9.1508
 20
17.5700
 30
0.0000
 42
1.0000
  0
VERTEX
  8
21
 10
9.0492
 20
17.5700
 30
0.0000
  0
SEQEND
  8
0
  0
POLYLINE
  8
21
 66
1
 10
0.0000
 20
0.0000
 30
0.0000
 40
0.2032
 41
0.2032
 70
0
  0
VERTEX
  8
21
 10
9.1000
 20
16.1700
 30
0.0000
  0
VERTEX
  8
21
 10
9.1000
 20
10.5700
 30
0.0000
  0
SEQEND
  8
0
  0
POLYLINE
  8
21
 66
1
 10
0.0000
 20
0.0000
 30
0.0000
 40
0.1016
 41
0.1016
 70
0
  0
VERTEX
  8
21
 10
9.0492
 20
10.5700
 30
0.0000
 42
1.0000
  0
VERTEX
  8
21
 10
9.1508
 20
10.5700
 30
0.0000
  0
SEQEND
  8
0
  0
POLYLINE
  8
21
 66
1
 10
0.0000
 20
0.0000
 30
0.0000
 40
0.1016
 41
0.1016
 70
0
  0
VERTEX
  8
21
 10
9.1508
 20
16.1700
 30
0.0000
 42
1.0000
  0
VERTEX
  8
21
 10
9.0492
 20
16.1700
 30
0.0000
  0
SEQEND
  8
0
  0
POLYLINE
  8
21
 66
1
 10
0.0000
 20
0.0000
 30
0.0000
 40
0.2032
 41
0.2032
 70
0
  0
VERTEX
  8
21
 10
9.1000
 20
10.5700
 30
0.0000
  0
VERTEX
  8
21
 10
16.1000
 20
10.5700
 30
0.0000
  0
SEQEND
  8
0
  0
POLYLINE
  8
21
 66
1
 10
0.0000
 20
0.0000
 30
0.0000
 40
0.1016
 41
0.1016
 70
0
  0
VERTEX
  8
21
 10
16.1000
 20
10.5192
 30
0.0000
 42
1.0000
  0
VERTEX
  8
21
 10
16.1000
 20
10.6208
 30
0.0000
  0
SEQEND
  8
0
  0
POLYLINE
  8
21
 66
1
 10
0.0000
 20
0.0000
 30
0.0000
 40
0.1016
 41
0.1016
 70
0
  0
VERTEX
  8
21
 10
9.1000
 20
10.6208
 30
0.0000
 42
1.0000
  0
VERTEX
  8
21
 10
9.1000
 20
10.5192
 30
0.0000
  0
SEQEND
  8
0
  0
POLYLINE
  8
21
 66
1
 10
0.0000
 20
0.0000
 30
0.0000
 40
0.2032
 41
0.2032
 70
0
  0
VERTEX
  8
21
 10
16.1000
 20
16.1700
 30
0.0000
  0
VERTEX
  8
21
 10
9.1000
 20
16.1700
 30
0.0000
  0
SEQEND
  8
0
  0
POLYLINE
  8
21
 66
1
 10
0.0000
 20
0.0000
 30
0.0000
 40
0.1016
 41
0.1016
 70
0
  0
VERTEX
  8
21
 10
9.1000
 20
16.2208
 30
0.0000
 42
1.0000
  0
VERTEX
  8
21
 10
9.1000
 20
16.1192
 30
0.0000
  0
SEQEND
  8
0
  0
POLYLINE
  8
21
 66
1
 10
0.0000
 20
0.0000
 30
0.0000
 40
0.1016
 41
0.1016
 70
0
  0
VERTEX
  8
21
 10
16.1000
 20
16.1192
 30
0.0000
 42
1.0000
  0
VERTEX
  8
21
 10
16.1000
 20
16.2208
 30
0.0000
  0
SEQEND
  8
0
  0
INSERT
  8
17
  2
ROUNDP
 10
10.9000
 20
13.9700
 30
0.0000
 41
2.1844
 42
2.1844
 43
1.0000
 50
180.0000
  0
INSERT
  8
17
  2
ROUNDP
 10
10.9000
 20
13.9700
 30
0.0000
 41
2.1844
 42
2.1844
 43
1.0000
 50
180.0000
  0
CIRCLE
  8
44
 10
10.9000
 20
13.9700
 30
0.0000
 40
0.5000
  0
INSERT
  8
17
  2
ROUNDP
 10
14.4000
 20
13.9700
 30
0.0000
 41
2.1844
 42
2.1844
 43
1.0000
 50
180.0000
  0
INSERT
  8
17
  2
ROUNDP
 10
14.4000
 20
13.9700
 30
0.0000
 41
2.1844
 42
2.1844
 43
1.0000
 50
180.0000
  0
CIRCLE
  8
44
 10
14.4000
 20
13.9700
 30
0.0000
 40
0.5000
  0
CIRCLE
  8
44
 10
7.3660
 20
4.3180
 30
0.0000
 40
0.2413
  0
CIRCLE
  8
44
 10
1.3335
 20
10.0965
 30
0.0000
 40
0.2413
  0
CIRCLE
  8
44
 10
1.3970
 20
7.4295
 30
0.0000
 40
0.2413
  0
CIRCLE
  8
44
 10
24.1300
 20
10.0965
 30
0.0000
 40
0.2413
  0
CIRCLE
  8
44
 10
24.0030
 20
7.5565
 30
0.0000
 40
0.2413
  0
CIRCLE
  8
44
 10
9.3980
 20
10.3505
 30
0.0000
 40
0.2413
  0
CIRCLE
  8
44
 10
7.1120
 20
13.2715
 30
0.0000
 40
0.2413
  0
CIRCLE
  8
44
 10
16.0020
 20
4.6355
 30
0.0000
 40
0.2413
  0
CIRCLE
  8
44
 10
21.7805
 20
10.4775
 30
0.0000
 40
0.2413
  0
CIRCLE
  8
44
 10
3.7465
 20
7.3660
 30
0.0000
 40
0.2413
  0
CIRCLE
  8
44
 10
12.5948
 20
6.0742
 30
0.0000
 40
0.2413
  0
CIRCLE
  8
44
 10
21.8059
 20
9.1901
 30
0.0000
 40
0.2413
  0
CIRCLE
  8
44
 10
3.7465
 20
6.2738
 30
0.0000
 40
0.2413
  0
CIRCLE
  8
44
 10
11.5126
 20
6.3056
 30
0.0000
 40
0.2413
  0
CIRCLE
  8
44
 10
22.6060
 20
8.0645
 30
0.0000
 40
0.2413
  0
CIRCLE
  8
44
 10
18.8595
 20
12.0650
 30
0.0000
 40
0.2413
  0
CIRCLE
  8
44
 10
3.2385
 20
10.7950
 30
0.0000
 40
0.2413
  0
ENDSEC
  0
EOF
